<?xml version="1.0" encoding="UTF-8"?>
<svg version="1.1" viewBox="0 0 50 50" xmlns="http://www.w3.org/2000/svg">
  <title>玉</title>
  <path d="m6.1428 49.005h37.715l-6.3481-45.745-12.51-2.2497-12.51 2.2497-6.3475 45.745z" fill="#fff" fill-rule="evenodd" stroke="#000" stroke-width="2"/>
  <g aria-label="玉">
    <path d="m32.48 38.16h-6.4001v-10.133h8.0001c0.4 0 0.66668-0.13334 0.74668-0.42667-1.12-0.98668-2.9334-2.3734-2.9334-2.3734l-1.6267 2.0267h-4.1867v-8.4001h9.0934c0.4 0 0.69334-0.13334 0.77334-0.42667-1.1733-1.0133-3.0934-2.4267-3.0934-2.4267l-1.6534 2.1067h-16.907l0.24 0.74668h8.8001v8.4001h-7.9201l0.21334 0.77334h7.7068v10.133h-10.587l0.24 0.77334h23.52c0.4 0 0.66668-0.13334 0.74668-0.42667-1.1467-1.04-3.0934-2.48-3.0934-2.48zm-4.5334-8.4534c1.36 1.3334 2.8534 3.44 3.1467 5.3067 2.72 1.9467 4.9334-3.6534-2.9067-5.4934z"/>
  </g>
</svg>
