<?xml version="1.0" encoding="UTF-8"?>
<svg version="1.1" viewBox="0 0 50 50" xmlns="http://www.w3.org/2000/svg">
  <title>妃</title>
  <path d="m6.1426 49.005h37.715l-6.3481-45.745-12.51-2.2497-12.51 2.2497-6.3475 45.745z" fill="#fff" fill-rule="evenodd" stroke="#000" stroke-width="2"/>
  <g aria-label="妃">
    <path d="m20.427 23.253c-0.24 3.1467-0.69334 6.1601-1.7067 8.8268-0.82668-0.4-1.76-0.74668-2.8534-1.0667 0.66668-2.3467 1.3867-5.1734 2-7.7601zm-0.21334-0.77334h-2.16c0.48001-2.08 0.88001-3.9467 1.12-5.1734 0.69334 0 0.96001-0.24 1.0667-0.58667l-3.2267-0.72001c-0.21334 1.5467-0.69334 3.92-1.28 6.4801h-3.2534l0.24 0.77334h2.8534c-0.88001 3.7067-1.9467 7.6801-2.7467 10.027 0.98668 0.29334 1.9467 0.24 2.4-0.08 0.16-0.50667 0.32-1.04 0.48001-1.6267 0.80001 0.58667 1.6267 1.28 2.3734 2.0267-1.2267 2.56-3.0134 4.7467-5.7067 6.4534l0.24 0.32c3.12-1.36 5.2534-3.2 6.7468-5.3601 0.90668 1.12 1.6 2.2667 1.92 3.3867 2.24 1.3067 3.4667-2.3467-0.77334-5.3067 1.4134-2.8267 2-6.0534 2.3734-9.4401 0.58667-0.05333 0.82668-0.16 1.0133-0.42667l-2.4-2.08zm16.347 10.4h-0.29334c-0.48001 1.9734-0.88001 3.5734-1.1733 4.0801-0.16 0.29334-0.32 0.4-0.72001 0.42667-0.45334 0.05333-1.4934 0.05333-2.7734 0.05333h-3.1467c-1.1467 0-1.3334-0.16-1.3334-0.69334v-10.427h5.8667v2.5067h0.4c0.82668 0 2.08-0.50667 2.1067-0.69334v-8.7468c0.56001-0.13334 0.93334-0.34667 1.0933-0.56001l-2.6134-2-1.2533 1.3334h-9.4668l0.24 0.77334h9.4935v6.6134h-5.5467l-2.8267-1.0933v12.827c0 1.9734 0.69334 2.48 3.4134 2.48h3.3867c5.0134 0 6.2134-0.42667 6.2134-1.5734 0-0.45334-0.21334-0.77334-1.0133-1.04z"/>
  </g>
</svg>
