<?xml version="1.0" encoding="UTF-8"?>
<svg version="1.1" viewBox="0 0 426 426" xmlns="http://www.w3.org/2000/svg">
  <title>Komayo</title>
  <rect width="426" height="426" fill="#dbbe86" fill-rule="evenodd"/>
  <path d="m0 2.3999c0 2.5998 6.4 9.5994 8.7 9.5994 1.7 0 4.3 5.2997 4.3 8.8995 0 1.5999 0.5 4.1997 1.1 5.7996 1.5 3.8998 2.1 8.0995 1.8 12.799-0.1 2.1999-0.2 10.299-0.2 17.999 0 11.799-0.2 13.399-1.1 10.299-0.6-1.9999-1.4-3.9998-1.8-4.3997-0.7-0.59996-1.3 7.5995-1.1 13.299 0.1 0.69996-0.4 1.2999-0.9 1.2999-0.6 0-0.5 0.59996 0.2 1.4999 0.9 0.99994 0.9 1.4999 0.1 1.4999-1.5 0-1.4 2.6998 0.2 3.2998 1 0.39998 1 0.59996 0 0.59996-0.7 0.09999-1.3 0.89994-1.3 1.9999 0 0.99994-0.9 2.0999-2.1 2.3999-1.3 0.29998-1.9 0.099993-1.6-0.59996s1-1.0999 1.6-0.99994c0.6 0.19999 1.1-0.19999 1.1-0.69996 0-1.3999-2.3-1.2999-3.8 0.19999-0.9 0.89994-1.2 0.49997-1.2-1.8999 0-1.7999-0.5-4.3997-1-5.7996-0.9-2.2999-0.8-2.5998 0.8-2.0999 1.3 0.39998 1.9 0.09999 1.9-0.89994 0-0.79995-0.6-1.4999-1.3-1.4999s-1.9-0.29998-2.7-0.59996c-1.3-0.39998-1.5 0.39998-1.1 5.2997 0.2 3.1998 0.6 12.199 0.8 20.099 0.3 7.7995 0.8 14.699 1.1 15.199 0.8 1.2999-0.6 6.0996-1.6 5.3997-0.5-0.29998-0.9 0.69996-0.9 2.1999 0 2.6998 0.1 2.6998 1.5 0.79996 1.4-1.7999 1.4-1.7999 1.5 0.79995 0 1.9999-0.4 2.5998-1.5 2.1999-1.3-0.49997-1.5 16.999-1.5 149.49v150.09h7.5c6.3 0 7.7-0.29998 9.5-2.1999 1.1-1.1999 2-1.7999 2-1.3999 0 0.39997 1.2-0.59996 2.6-2.2999s3.1-2.7998 3.7-2.4998c0.8 0.49997 0.8 0.19999 0-0.59996-1-1.0999-1.7-0.99994-3.5 0.49997-1.3 0.99994 0.9-1.3999 4.9-5.2997 6.7-6.5996 15-12.899 15.9-11.999 0.2 0.29999-2.4 2.4998-5.9 4.9997-6.1 4.4997-12.7 10.799-11.4 10.799 0.4 0 3-1.7999 5.9-3.9998 2.9-2.0999 5.4-3.6998 5.7-3.4998 0.2 0.29998 1.3-0.19999 2.3-1.1999 1-0.89994 1.8-1.1999 1.8-0.69996s0.4 0.29999 0.9-0.49997c0.5-0.69995 1.1-0.89994 1.4-0.39997s-1.1 1.9999-3.1 3.2998c-4.6 2.9998-21.2 15.999-21.2 16.599 0 0.19999 36.2 0.39998 80.5 0.39998h80.6l-0.7-4.9997c-0.6-4.4997-0.4-5.1997 2.6-8.9994 1.7-2.1999 3.8-3.9998 4.6-3.9998 1.9 0 1.8 0.69996-0.7 4.6997-1.2 1.8999-1.8 3.6998-1.5 3.9998 0.8 0.79995 8.8-7.7995 12.2-12.899 1.3-2.0999 2.7-3.7998 2.9-3.7998 0.7 0-6.5 13.299-7.5 13.999-1.7 1.1999-3 5.1997-2.4 7.4995 0.8 3.0998 1.7 3.1998 3.4 0.1 0.7-1.3999 1.8-2.1999 2.6-1.8999 0.8 0.29999 1.4-0.1 1.4-1.0999 0-1.7999 0.7-2.6998 5.2-7.6995 1.6-1.5999 2.8-3.4998 2.8-4.2997 0-0.69995 2-2.9998 4.4-5.0997 2.5-2.0999 4.3-4.1998 4.1-4.4997-0.2-0.39998 0.2-0.69996 1-0.69996s1.5 0.19999 1.5 0.39998c0 1.2999-2.7 5.1997-5.1 7.5995-1.6 1.4999-2.9 3.3998-2.9 4.1998s-0.4 1.4999-0.8 1.4999-1.5 1.1999-2.4 2.6998c-0.9 1.5999-3.5 4.6997-5.8 7.0996-3.1 3.0998-4 4.5997-3.2 5.3997 1.1 1.0999 2.2 0 15.8-14.399 1.9-2.0999 3.1-3.7998 2.7-3.7998s-0.3-0.39998 0.2-0.79995c0.6-0.39998 1.5-1.5999 2.2-2.6998 0.6-1.0999 1.6-1.8999 2.2-1.7999 0.6 0.19999 1-0.1 0.8-0.59996-0.1-0.49997 0.9-1.9999 2.3-3.2998 4.2-3.9998 6.9-7.5995 6.3-8.1995-0.4-0.29998-0.1-0.59996 0.6-0.59996s1-0.39998 0.7-0.79995c-0.2-0.39998-0.1-1.3999 0.5-2.1999 0.6-1.0999 0.9-1.1999 0.9-0.19999 0 0.69996 0.5 0.99994 1 0.69996 0.6-0.39997 0.8-1.0999 0.4-1.5999-0.3-0.59996 0.3-1.8999 1.5-2.9998s2.1-2.3998 2.1-2.7998c0-1.4999 9.8-11.599 10.5-10.899 0.4 0.39997-1.2 2.5998-3.5 4.9997-2.3 2.3999-4.8 5.4997-5.6 7.0996-0.8 1.4999-4 6.1996-7.2 10.499-7.8 10.499-17.9 26.598-19.8 31.398-1.4 3.9998 1.6 1.3999 5.6-4.6997 2.5-3.8998 4.7-6.1996 5.4-5.7996 0.6 0.29998 0.8 0.29998 0.4-0.19999-0.4-0.39997 0-2.0999 0.8-3.6998 1.3-2.4998 1.8-2.7998 3.2-1.6999 1.4 1.0999 1.5 1.0999 0.5-0.1-1.5-1.6999-1.7-3.3998-0.3-2.4998 0.6 0.29998 1-0.1 1-0.99994s0.9-1.8999 2.1-2.1999c1.1-0.29998 1.6-0.89995 1-1.1999-1.5-0.99994 0.3-3.1998 2.6-3.3998 1.3-0.1 1.9-0.59996 1.6-1.4999-0.5-1.0999-0.7-1.0999-1.4 0s-0.9 1.0999-0.9 0c0-0.79995 0.9-1.5999 2.1-1.8999 1.6-0.39998 1.7-0.79995 0.7-1.3999-1-0.69995-1-0.89994 0-0.89994 0.6 0 1.2-0.59997 1.2-1.3999 0-2.1999 1.9-2.9998 3.5-1.5999 1.8 1.4999 2 3.0998 0.3 2.6998-0.6-0.1-1.4 0.69995-1.6 1.7999-0.2 1.0999-0.7 2.1999-1.1 2.4998s-1.8 2.6998-3.1 5.2997c-1.4 2.5998-3.2 5.5997-4.1 6.4996-0.8 0.89995-1.6 2.0999-1.7 2.6998-0.1 0.49997-0.7 1.6999-1.4 2.5998-2.3 2.7998-7 11.999-6.5 12.599 0.3 0.29998 2.1-1.8999 4-4.8997 1.9-2.8998 5.1-7.8995 7.1-11.099 2-3.0998 4.1-5.6997 4.6-5.6997 2.5 0 1.6 2.9998-3.9 12.699-3.4 5.7996-5.9 10.799-5.8 10.999 0.2 0.19999 2.8-3.4998 5.7-8.1995s5.7-8.4995 6.2-8.4995 0.7-0.39998 0.3-0.89995c-0.3-0.49997-0.1-1.1999 0.5-1.5999 1.3-0.79995 1.3 2.7998 0.1 3.9998-0.5 0.59996-1.2 2.9998-1.6 5.4997-0.4 2.3998-1.3 5.6996-2.1 7.1996-1.4 2.5998-1.3 2.7998 0.5 2.7998 1.1 0 1.9-0.59996 1.7-1.2999-0.1-0.59996-0.1-0.89995 0.1-0.39998 0.3 0.39998 1 0.39998 1.5 0.1 0.7-0.49997 0.8-0.19999 0.3 0.59996-1 1.5999 3.6 0.29998 4.7-1.3999 0.5-0.69996 0.8-0.39998 0.8 0.69995 0 2.5998 2.4 1.5999 2.8-1.0999 0.3-2.2999 2.2-3.0998 2.2-0.99994 0 0.59996 0.3 0.89995 0.6 0.59996 0.3-0.39997 0-1.5999-0.6-2.8998-1.1-1.8999-1-2.0999 0.4-1.5999 1 0.39998 1.6 0.1 1.6-0.69996 0-0.69995 0.6-1.8999 1.4-2.4998 2.2-1.8999 3 0.59997 1.2 3.3998-1.8 2.6998-2 3.5998-0.8 3.3998 2.6-0.39998 3.2 0.19999 2.2 2.0999-2.1 3.8998 0.2 2.0999 6.1-4.7997 1.8-2.1999 2.1-0.59996 0.5 2.6998-2 3.7998-2 4.6997-0.1 3.0998 0.8-0.69996 1.5-1.6999 1.5-2.1999 0-1.5999 8-11.799 9.3-11.699 0.8 0 0.9 0.19999 0.1 0.49997-0.7 0.29998-1 1.3999-0.7 2.3998 0.4 1.2999 0 1.9999-1 1.9999-0.8 0-1.7 0.99994-2 2.1999-0.9 3.3998 0.4 4.1997 2.2 1.3999 1-1.3999 2.1-2.2999 2.4-1.8999 0.4 0.29998 0.7-0.1 0.7-0.99994 0-1.9999 6-8.6995 7.7-8.6995 0.7 0 1.3 0.19999 1.3 0.49997 0 0.89994-4.2 8.9994-5 9.4994-1.1 0.79995-2 3.9998-1.1 3.9998 0.5 0 0.7 0.89995 0.4 1.9999s-0.3 1.9999 0 1.9999c0.9 0 5.5-8.4995 6.3-11.299 0.3-1.4999 1.5-3.1998 2.6-3.7998 1.7-0.89994 1.6-0.49997-0.7 4.2997l-2.6 5.2997 3-3.4998c3.7-4.2997 3.9-3.4998 0.6 2.9998-1.4 2.7998-2.1 4.9997-1.5 4.9997s1.6-1.0999 2.2-2.4998c0.6-1.3999 1.5-2.4998 2-2.4998s0.2 1.3999-0.7 2.9998l-1.6 2.9998h138.1v-27.898c0-21.399-0.3-28.098-1.3-28.398-0.9-0.39998-0.9-0.59997 0.1-0.59997 0.9-0.1 1.2-3.2998 1.1-12.899v-12.699l-1.5 5.2997c-1.5 5.8996-7.7 17.799-11.2 21.999-2.1 2.3998-2.1 2.2999 0.3-1.7999 1.5-2.4998 3.6-6.5996 4.7-9.2994 1.1-2.5998 2.4-4.6997 2.7-4.6997 0.4 0 0.7-0.79995 0.8-1.7999 0.1-0.89994 0.2-3.1998 0.4-4.8997 0.1-1.7999 0.5-3.2998 0.9-3.2998s0.8-0.59997 0.7-1.2999c0-0.59996 0.1-2.9998 0.2-5.1997 0.1-2.8998 0.4-3.5998 1.1-2.4998 0.6 0.89995 0.9-56.197 1-155.09v-156.59l-5.3-3.4998c-5-3.3998-5.3-3.7998-7.1-10.699-2-7.7995-3-8.4995-3.5-2.3999-0.1 1.4999-0.4 1.3999-1.7-0.49997-0.9-1.2999-1.3-2.5998-1-2.8998 0.3-0.29998 0.1-1.3999-0.5-2.3999-0.9-1.7999-3.4-1.8999-60.5-1.8999h-59.5l5.3 6.1996c2.9 3.4998 5.5 6.4996 5.8 6.7996 0.3 0.29998 0.6 1.1999 0.8 1.9999 0.4 1.5999-7.1-6.5996-10.6-11.699l-2.3-3.2998h-85.5c-60.3 0-86.1 0.29998-87.6 1.0999-1.4 0.79995-1.8 0.79995-1.4 0 0.5-0.69996-15.8-1.0999-55.4-1.0999h-56zm96.2 6.9996c-4.4 4.6997-9.3 10.499-10.8 12.999-2.9 4.4997-5.5 6.4996-3.4 2.5998 2.7-4.9997 19.4-23.799 21.4-23.899 0.4-0.099994-2.8 3.6998-7.2 8.2995zm8.6-2.1999c-5.3 5.1997-16.5 17.799-20.1 22.799-1 1.3999-0.5 0.19999 1-2.4998 1.5-2.7998 3.7-5.9996 5-7.1996 1.3-1.1999 2.3-2.4998 2.3-2.7998 0-1.2999 13.7-14.399 14.4-13.799 0.3 0.29998 0.6 0.099994 0.6-0.49997 0-0.69996 0.5-1.1999 1.1-1.1999s-1.3 2.3999-4.3 5.1997zm193.3-0.99994c1.1 2.0999 1.1 2.1999-0.4 0.89995-1-0.69996-1.7-1.6999-1.7-2.1999 0-1.4999 0.9-0.99994 2.1 1.2999zm-100.1 0.29998c-0.7 0.89995-1.5 1.2999-1.7 1.0999-0.7-0.69996 0.7-2.5998 1.9-2.5998 0.6 0 0.6 0.59996-0.2 1.4999zm-10 0.79995c0 0.69996-0.8 2.1999-1.7 3.2998-1 0.99994-1.9 2.7998-1.9 3.8998-0.1 1.0999-0.9 5.5997-1.8 9.9994-2.2 11.199-3.6 24.399-3.6 35.198 0 5.4997-0.4 9.2994-1 9.2994-0.5 0-1-1.5999-1-3.4998 0-3.5998-1.5-4.7997-2.3-1.7999-0.2 0.99994-0.4-0.39998-0.4-2.9998s-0.4-5.0997-0.7-5.4997c-1.3-1.2999-2.6 2.3999-2.7 7.7995-0.1 7.6995-1.7 3.4998-1.8-4.6997-0.1-10.499 9.9-45.297 13.1-45.297 0.5 0 0.7-0.39998 0.4-0.89994-0.3-0.49997 0.6-1.9999 2.1-3.4998 2.9-2.9998 3.3-3.0998 3.3-1.2999zm114 3.1998c1.4 1.8999 1.4 1.8999-0.2 0.59996-1-0.69996-1.8-1.7999-1.8-2.3999s0.1-0.79995 0.3-0.59996c0.1 0.19999 0.9 1.2999 1.7 2.3999zm-102.1 7.2996c0.1 0.69996-0.3 0.99994-0.9 0.69996-0.5-0.29998-1-1.7999-0.9-3.2998 0-2.3999 0.1-2.4998 0.9-0.69996 0.5 1.0999 0.9 2.5998 0.9 3.2998zm96.1 1.8999c4.6 4.1997 7 7.3995 9.1 12.099 1.6 3.4998 2.8 6.5996 2.8 6.9996-0.3 1.9999 0.2 3.1998 1.1 2.6998 0.6-0.29998 0.7 0.09999 0.4 0.99994-0.5 1.1999-1.3 0.59996-3.2-2.5998-1.3-2.2999-4.1-5.6997-6.1-7.5995-3.5-3.2998-3.6-3.2998-4.5-1.1999-0.8 1.7999-0.5 2.4998 1.7 4.0998 1.5 1.0999 3.2 2.8998 3.8 3.9998 1 1.8999 0.9 1.9999-1 1.4999-2.9-0.69996-5 1.5999-4.3 4.8997l0.5 2.6998-4.5-3.0998c-2.4-1.6999-5-3.7998-5.8-4.6997-0.8-0.99994-4.1-3.5998-7.5-5.8996l-6-4.0997 4-0.29998c4.2-0.39998 6.8-1.7999 5.9-3.2998-0.3-0.49997 0.2-0.89995 1.1-0.89995s1.3-0.49997 1-0.99994c-0.9-1.3999 1.8-1.2999 3.3 0.19999 1.4 1.3999 4.2 1.9999 4.2 0.79995 0-0.39998-0.7-1.2999-1.5-1.9999-0.8-0.69996-2.4-2.7998-3.6-4.6997-1.8-2.8998-1.9-3.6998-0.8-4.3997 2.4-1.4999 3.4-0.99994 9.9 4.7997zm6.5-0.69996c-0.3 0.49997 0.4 1.1999 1.6 1.4999 1.3 0.39998 1.8 1.1999 1.5 2.0999s-0.1 1.1999 0.4 0.89994c0.6-0.39998 1 0.49997 1 1.9999 0 2.4998-0.3 2.2999-4-2.5998s-4.5-8.3995-1.4-5.7996c0.7 0.59996 1.2 1.4999 0.9 1.8999zm-112 17.399c0.3 3.3998 1.1 8.9995 1.6 12.599 1.2 7.8995 1.7 30.298 0.7 28.698-0.5-0.79995-0.8-0.59996-0.8 0.49997 0 0.99994-0.4 1.7999-1 1.7999-1.4 0-1.2-3.6998 0.3-4.2997 0.8-0.29998 0.6-0.89994-0.7-1.8999-1-0.79995-1.6-1.9999-1.2-2.5998 0.4-0.59996 0.2-2.0999-0.5-3.2998-1.5-2.8998-2.7-30.498-2-45.397l0.3-4.9997 1.3 6.3996c0.8 3.4998 1.7 9.0994 2 12.499zm-171-7.1996c0.9 6.3996 1.1 41.797 0.2 41.797-1.4 0-1.6-2.3999-1.9-24.299-0.3-20.599 0.3-26.898 1.7-17.499zm151 6.7996c-2.8 9.1994-6.4 27.598-6.5 32.698 0 2.7998-0.4 3.2998-2.5 3.2998-2.4 0-2.5-0.09999-1.9-6.2996 1-10.199 8.6-35.798 11.7-39.198 2.1-2.2999 1.9 0.59996-0.8 9.4994zm31-8.2995c0 1.5999 0.4 3.0998 1 3.4998 0.6 0.49997 0.5 1.1999-0.5 1.7999-1.3 0.89994-1.3 1.0999 0 1.9999 0.8 0.49997 1.1 0.99994 0.5 0.99994s-1 3.2998-1 7.8995c0 4.3997 0.3 7.6995 0.7 7.4995 0.3-0.19999 0.6 1.1999 0.6 3.0998s-0.5 3.7998-1.2 4.1997c-0.6 0.29998-0.8 0.29998-0.4-0.19999 0.4-0.39998 0.3-1.2999-0.2-1.9999-0.5-0.59996-1-6.0996-0.9-12.099 0-5.9996-0.1-12.799-0.1-15.199-0.1-2.2999 0.3-4.1997 0.8-4.1997 0.4 0 0.8 1.1999 0.7 2.6998zm-37.1 2.6998c-0.6 2.4998-2.4 3.6998-2.4 1.4999 0-1.4999 2.1-5.1997 2.6-4.5997 0.3 0.29998 0.2 1.5999-0.2 3.0998zm-90.1 8.2995c-3.6 5.9996-8.2 14.499-10.3 18.899-4.6 9.6994-10 26.298-10 30.398 0 1.6999-0.5 2.9998-1.1 2.9998-0.5 0-0.7 0.39998-0.4 0.99994 0.3 0.49997 0 0.99994-0.7 1.0999-1 0-1 0.19999 0 0.59996 2 0.79995 1.4 3.0998-1 3.4998-2.1 0.29998-2.1 0.39998-0.4 1.9999 1 0.99994 1.4 1.7999 0.9 1.7999-1 0-3.6 10.899-3.2 13.099 0.4 1.9999-1.1 8.8995-1.9 8.8995-0.4 0-0.8 2.0999-0.9 4.6997-0.1 2.6998-0.3 6.6996-0.4 8.9994-0.1 2.3999-0.7 3.9998-1.3 3.8998-0.6-0.19999-0.8-0.1-0.3 0.1 0.4 0.29998 0.7 3.1998 0.6 6.5996-0.1 4.5997-0.3 5.5996-0.9 3.6998l-0.8-2.4998-0.1 2.6998c-0.1 1.3999-0.4 3.3998-0.8 4.3997-0.4 1.1999-0.3 1.4999 0.5 0.99994 0.7-0.39998 1.2-0.1 1.2 0.89994 0 0.79995-0.7 1.7999-1.5 2.0999-0.8 0.39997-1.5 0.99993-1.5 1.5999 0 0.49997 0.5 0.59996 1 0.29998 0.6-0.29998 1 0.1 1 0.99994s-0.4 1.2999-1 0.99994c-0.5-0.29998-1-0.1-1 0.39997 0 0.59997 0.4 1.0999 1 1.0999 0.5 0 0.9 2.3998 0.9 5.3997-0.1 4.0998-0.5 5.5996-1.7 6.0996-1.4 0.49997-1.4 0.69996-0.2 1.5999 1.3 0.79995 1.3 0.99993 0 1.9999-1.1 0.79995-1.2 1.1999-0.2 1.5999 1.9 0.79995 1.5 5.2997-0.5 5.3997-1.6 0.1-1.6 0.19998-0.2 0.59996 1.4 0.29998 1.6 1.2999 1.1 4.5997-0.3 2.2999-0.9 4.3997-1.4 4.4997-0.4 0.19999-0.5 0.79995-0.2 1.3999 0.8 1.2999-1.6 45.897-2.6 47.797-0.5 0.79995-0.6-4.3997-0.4-11.499 0.4-9.1994 0.2-12.599-0.5-11.499-0.7 0.89995-1.1 0.99994-1.1 0.29999 0-0.59997 0.5-1.4999 1.1-1.8999 0.8-0.39997 0.7-0.89994-0.2-1.5999-0.8-0.59996-1-1.0999-0.4-1.3999 0.6-0.19998 1-3.5998 0.9-7.6995-0.2-10.799 1.3-24.898 2.8-25.898 1-0.79995 1-1.0999 0.1-1.4999-0.7-0.19999-1.1-1.3999-0.8-2.5998 0.2-1.1999 0.7-9.7994 0.9-18.999 0.3-9.2994 0.8-17.199 1.1-17.799 0.4-0.49997 0.8-2.7998 0.9-5.1997 0.2-2.2999 0.8-6.8996 1.4-10.199 0.7-3.2998 1.4-7.7995 1.8-9.8994 0.3-2.1999 1-4.9997 1.5-6.2996 0.5-1.3999 0.9-3.5998 0.9-4.9997 0-1.7999 0.4-2.3998 1.5-1.8999 0.8 0.29999 1.5 0.1 1.5-0.29998 0-0.49997-0.6-1.0999-1.2-1.2999-1-0.39997-1-1.7999 0-6.7996 1.3-6.0996 11.2-33.998 13.2-36.998 0.6-0.79995 2.2-4.0998 3.6-7.2996 1.5-3.0998 3.1-5.6997 3.7-5.6997s0.8-0.29998 0.5-0.59996c-0.6-0.49997 10.7-18.399 11.6-18.399 0.2 0-2.5 4.7997-6.1 10.699zm206 1.2999c3.2 1.7999 3.7 2.6998 3.2 4.3997-0.4 1.0999-0.9 3.4998-1.2 5.0997-0.5 3.3998-2.4 3.7998-7.7 1.5999-4-1.5999-4.4-0.69996-1.3 3.5998 4.3 6.0996 2 5.1997-4.6-1.7999-6.5-6.6996-13.4-12.499-14.2-11.699-0.2 0.19999 2.1 3.1998 5.3 6.6996 6.4 7.0996 10.6 12.999 8.2 11.599-0.8-0.49997-3.5-2.4998-5.9-4.3997-2.5-1.9999-4.1-2.9998-3.7-2.3999 0.4 0.79995 0.1 1.2999-0.8 1.2999-2.2 0-2 1.6999 0.4 4.6997 1.1 1.3999 2 3.1998 2 3.8998 0 2.0999-2.4 0.59996-4.3-2.5998-1-1.5999-3.3-4.4997-5.1-6.3996-3.6-3.8998-2.4-5.8996 1.5-2.4998 3.6 3.0998 4.4 0.69996 1.5-4.8997-2.7-5.3997-3.3-8.1995-1.6-8.1995 0.6 0 1 0.39998 1 0.89994 0 0.49997 1.8 1.0999 4.1 1.4999 2.2 0.39998 5.1 1.3999 6.5 2.1999 2.8 1.8999 3.1 0.89994 0.9-4.2997-0.8-1.8999-1.5-4.1997-1.5-4.8997 0-2.1999 1.9-1.5999 3.1 0.99994 1.2 2.4998 5.5 5.3997 6.5 4.2997 0.4-0.39998-0.1-1.7999-1-3.0998-2.8-4.2997-1.7-5.2997 1.7-1.4999 1.8 1.9999 4.9 4.5997 7 5.8996zm-219.6 4.1997c-0.3 0.79995-0.6 0.49997-0.6-0.59996-0.1-1.0999 0.2-1.6999 0.5-1.2999 0.3 0.29998 0.4 1.1999 0.1 1.8999zm71.4 4.6997c-1.2 2.7998-3.2 6.7996-4.5 8.7995-1.3 2.0999-3.9 8.0995-5.7 13.299-4 11.599-5.3 13.499-4.4 5.9996 1.2-10.199 4.8-18.699 12.3-29.298 1.9-2.5998 3.6-4.5997 3.9-4.3997 0.2 0.29998-0.5 2.6998-1.6 5.5997zm108.6-3.6998c-0.3 0.79995-0.6 0.49997-0.6-0.59996-0.1-1.0999 0.2-1.6999 0.5-1.2999 0.3 0.29998 0.4 1.1999 0.1 1.8999zm-157.7-0.39998c0 0.39998-0.7 1.6999-1.5 2.7998-0.8 1.1999-1.2 2.2999-1 2.4998 0.2 0.29998-0.9 4.2997-2.5 8.8995-1.6 4.6997-3 7.9995-3 7.4995-0.1-0.59996-0.6 0.09999-1.1 1.3999-0.5 1.2999-0.7 3.1998-0.4 4.0998 0.3 1.0999-0.1 1.9999-1 2.3999-1 0.29998-1.5-0.09999-1.5-1.1999 0-1.4999-0.2-1.4999-1-0.19999-1.7 2.5998-1.2 4.1997 1 3.4998 1.1-0.39998 2-0.19999 2 0.39998 0 0.59996-0.5 1.0999-1.1 1.0999s-0.8 0.69996-0.5 1.5999c0.7 1.8999-1.1 5.6997-2.4 4.8997-0.6-0.29998-0.7 0.09999-0.4 0.89994 0.7 1.7999-1.7 6.3996-5 9.4994-2.4 2.2999-2.6 2.2999-2.6 0.49997 0-3.9998 4-18.199 6.8-24.399 1.6-3.5998 3.9-8.6995 5.1-11.399 1.2-2.7998 3.3-6.3996 4.6-8.1995 1.4-1.7999 2.5-3.6998 2.5-4.2997 0-0.59996 0.5-1.0999 1.1-1.0999 0.5 0 0.7-0.49997 0.4-0.99994-0.3-0.59996-0.1-0.99994 0.4-0.99994 0.6 0 1.1 0.29998 1.1 0.79995zm57-0.29998c0 0.19999-0.9 2.7998-2 5.5997-1.2 2.7998-1.9 5.6997-1.6 6.2996 0.2 0.59996 0.5 0.39998 0.5-0.39998 0.2-2.5998 1.7-4.0998 4.5-4.3997 2.9-0.39998 3.3 0.49997 1.1 2.3999-0.8 0.69996-1.5 0.89994-1.5 0.49997 0-0.39998-1.6 1.5999-3.6 4.4997-3.9 5.6997-6.3 11.999-8.4 21.999-1.3 5.8996-1.4 6.1996-2.2 3.4998-0.5-1.8999-0.3-3.1998 0.4-3.5998 0.6-0.39998 0.8-1.0999 0.5-1.5999-1.2-1.8999 3.8-21.299 5.6-21.299 0.4 0 0.6-0.39998 0.2-0.89994-0.6-1.0999 4.6-13.099 5.7-13.099 0.5 0 0.8 0.19999 0.8 0.49997zm90.1 5.0997c4.7 6.7996 7.6 13.399 9.3 20.699 2.2 9.3994 2.1 10.699-0.3 8.1995-3.2-3.2998-17.5-32.798-16.5-33.798 1.3-1.2999 4.8 0.99994 7.5 4.8997zm-198.1-1.8999c-0.1 2.3999-0.2 2.5998-1.1 0.99994-0.5-0.89994-0.7-2.1999-0.4-2.6998 1-1.6999 1.5-1.0999 1.5 1.6999zm59.3 1.2999c-0.1 0.79995-2.7 8.6995-5.8 17.499-3.1 8.7995-6.4 18.299-7.4 21.199-1.8 5.3997-3.9 8.6995-2.8 4.2997 0.4-1.3999 0.7-5.5997 0.7-9.2994 0-4.8997 0.3-6.5996 1.2-6.0996 0.7 0.39998 0.8 0.29998 0.4-0.49997-1.8-2.7998 9.7-29.398 12.4-28.798 0.8 0.09999 1.4 0.89994 1.3 1.6999zm155.3 2.1999c0.3 0.89994 2.5 4.2997 4.9 7.3995 2.5 3.1998 4.5 6.4996 4.5 7.2996 0 0.89994 0.9 3.0998 2 4.7997 3 4.9997 0.9 3.8998-2.8-1.4999-1.8-2.5998-5.4-7.5995-7.8-11.199-7-9.8994-8.4-9.4994-3.4 1.1999 1.6 3.3998 3 6.9996 3 7.7995-0.1 2.4998-4.6-3.3998-6.5-8.3995-1.7-4.3997-1.7-4.6997 0.1-7.2996 1-1.5999 1.7-3.0998 1.6-3.5998-0.5-1.4999 3.8 1.8999 4.4 3.4998zm-94.7 5.6997c-0.2 2.7998-0.1 5.0997 0.2 5.0997s1.6-2.4998 2.9-5.3997c3.1-7.3995 5.1-8.1995 3.3-1.2999-0.7 2.7998-1.3 6.3996-1.3 8.0995 0 1.5999-0.4 4.4997-0.9 6.4996-0.6 1.9999-1.5 6.3996-2.2 9.8994-0.9 4.7997-1.5 6.1996-2.6 5.7996-0.8-0.39998-1.9-0.59996-2.5-0.59996-0.7 0-0.9-2.7998-0.4-8.4995 0.4-4.6997 0.3-8.4995-0.2-8.4995-0.4 0-1.8 2.9998-2.9 6.6996l-2.1 6.7996 0.4-6.4996c0.5-7.5995 2.4-16.899 3.6-17.599 0.4-0.29998 0.8-1.7999 0.8-3.3998 0-2.7998 1.8-4.3997 3.4-2.9998 0.4 0.49997 0.6 3.0998 0.5 5.8996zm-42.9-3.9998c0 1.0999-0.7 2.5998-1.5 3.4998-0.8 0.79995-1.5 1.6999-1.5 2.0999 0 0.89994-3 3.7998-3.5 3.3998-0.5-0.59996-0.8-3.0998-0.6-5.3997 0.1-1.4999 0.3-1.6999 1-0.59996 0.7 0.99994 1.4 0.59996 3.2-1.7999 2.7-3.5998 2.9-3.6998 2.9-1.1999zm15-1.1999c0 0.49997-1.6 3.8998-3.5 7.6995-1.9 3.8998-3.5 7.4995-3.5 7.9995 0 0.59996-1.4 2.5998-3 4.4997-3.7 4.1997-3.9 2.0999-0.5-4.2997 1.4-2.5998 2.5-5.2997 2.5-5.9996 0-1.7999 5.8-10.599 7-10.599 0.5 0 1 0.29998 1 0.69996zm-55 4.8997c0 0.79995-0.5 1.1999-1 0.89994-0.6-0.39998-0.8-1.0999-0.5-1.5999 0.9-1.3999 1.5-1.0999 1.5 0.69996zm46.3 0.09999c-1.1 3.0998-4.3 6.7996-4.3 4.9997 0-2.8998 1.9-6.6996 3.4-6.6996 1 0 1.3 0.59996 0.9 1.6999zm106.7 2.1999c1.5 2.8998 1.2 3.2998-1 1.3999-2.1-1.8999-2.6-3.2998-1-3.2998 0.5 0 1.4 0.89994 2 1.8999zm-156.6 4.7997c-1.7 1.6999-1.8 1.6999-1.1 0 0.4-0.99994 0.7-2.3999 0.7-2.9998 0-0.79995 0.3-0.79995 1.1 0 0.9 0.89994 0.7 1.5999-0.7 2.9998zm27.2-1.0999c-0.4 0.89994-0.9 1.4999-1.1 1.1999-0.3-0.29998-0.3-1.2999 0.1-2.1999s0.9-1.4999 1.1-1.1999c0.3 0.29998 0.3 1.2999-0.1 2.1999zm7.6 4.1997c-4.9 6.8996-7.1 6.2996-2.5-0.69996 1.7-2.5998 3-3.7998 3.6-3.1998 0.6 0.59996 0.2 1.9999-1.1 3.8998zm125.2-3.1998c0.3 0.79995 0.2 1.1999-0.4 0.89994-0.6-0.29998-1-0.99994-1-1.5999 0-1.3999 0.7-1.0999 1.4 0.69996zm-115.4 5.9996c-1.6 6.6996-3.1 10.399-4.2 10.399-0.5 0-0.5-0.69996 0-1.7999 0.5-0.89994 0.7-2.2999 0.4-3.0998-0.2-0.79995-0.1-1.0999 0.4-0.79995 0.5 0.29998 1-0.69996 1.1-2.1999 0.2-3.2998 2.2-8.5995 2.9-7.8995 0.3 0.29998 0 2.6998-0.6 5.3997zm64.7-1.3999c-0.3 0.79995-0.6 0.49997-0.6-0.59996-0.1-1.0999 0.2-1.6999 0.5-1.2999 0.3 0.29998 0.4 1.1999 0.1 1.8999zm50.6 0.69996c0.3 1.3999 0.1 1.7999-0.9 1.3999-1.5-0.59996-1.8-1.5999-0.7-2.5998 0.9-0.99994 1-0.89994 1.6 1.1999zm-162.8 2.9998c-0.4 1.6999-1 2.8998-1.5 2.5998-0.5-0.29998-0.4-1.8999 0.2-3.5998 1.3-3.7998 2.2-3.0998 1.3 0.99994zm116.5-0.49997c0 0.79995-0.4 1.7999-1 2.0999-0.5 0.29998-1-0.29998-1-1.3999 0-1.1999 0.5-2.0999 1-2.0999 0.6 0 1 0.59996 1 1.3999zm50 3.2998c0 1.1999-0.2 1.1999-1.5-0.09999-0.8-0.79995-1.5-1.6999-1.5-1.9999 0-0.29998 0.7-0.29998 1.5 0 0.8 0.39998 1.5 1.2999 1.5 2.0999zm-58.1 3.9998c0.1 0.69996-0.2 1.2999-0.6 1.2999-0.5 0-0.9-1.4999-1-3.2998-0.1-2.5998 0-2.7998 0.7-1.1999 0.5 1.0999 0.9 2.5998 0.9 3.1998zm-152.2-0.49997c-0.3 0.79995-0.6 0.49997-0.6-0.59996-0.1-1.0999 0.2-1.6999 0.5-1.2999 0.3 0.29998 0.4 1.1999 0.1 1.8999zm41.7 0.49997c-0.8 3.2998-1.2 3.8998-2 2.9998-0.4-0.29998-0.3-1.3999 0.1-2.3999 0.5-0.99994 0.7-2.0999 0.7-2.5998-0.1-0.39998 0.3-0.69996 0.8-0.69996 0.6 0 0.8 1.0999 0.4 2.6998zm-1.4 6.8996c0 0.79995-0.4 1.1999-1 0.89995-0.5-0.29998-1-0.99994-1-1.5999 0-0.49997 0.5-0.89994 1-0.89994 0.6 0 1 0.69996 1 1.5999zm-1.5 8.3995c-0.4 1.6999-0.9 2.8998-1.2 2.5998-0.3-0.19999-0.2-1.8999 0.2-3.5998 0.4-1.6999 0.9-2.8998 1.2-2.5998 0.3 0.19999 0.2 1.8999-0.2 3.5998zm-52.3 0.19999c-0.9 0.89994-1.2 0.69996-1.2-1.1999s0.3-2.0999 1.2-1.1999 0.9 1.4999 0 2.3999zm2.5 4.7997c-0.1 1.0999-0.5 1.9999-0.9 1.9999-1 0-1-0.39997-0.2-2.3998 0.8-2.1999 1.3-1.9999 1.1 0.39998zm2 1.1999c-0.3 0.69996-0.5 0.19999-0.5-1.1999 0-1.3999 0.2-1.8999 0.5-1.2999 0.2 0.69996 0.2 1.8999 0 2.4998zm-3.4 7.7995c0.3 1.0999 0.1 1.7999-0.4 1.3999-0.5-0.29998-0.9-1.1999-0.9-1.9999 0-1.9999 0.7-1.6999 1.3 0.59997zm363.5 19.499c5.9 23.399 8.5 36.098 7.9 37.798-0.2 0.69995-1.7-4.1998-3.2-10.799-1.5-6.5996-4.5-18.999-6.6-27.598-3.5-13.899-4.7-21.099-3.5-19.799 0.2 0.19999 2.7 9.3994 5.4 20.399zm-359.4 5.0997c0.3 0.79995 0.2 1.1999-0.4 0.89995s-1-0.99994-1-1.5999c0-1.3999 0.7-1.0999 1.4 0.69995zm-0.9 4.6997c0.1 0.69995 0.6 1.0999 1.3 0.89994 0.8-0.1 1.2 0.99994 1.1 2.9998-0.1 3.0998-0.1 3.1998-0.9 0.79995-0.7-2.1999-0.8-2.0999-0.9 1.2999-0.1 2.2999 0.3 3.5998 0.9 3.1998 0.6-0.39998 1.1 1.2999 1.2 4.1997 0.2 6.5996-0.1 8.6995-1.2 9.0994-0.6 0.19999-1 1.2999-1 2.4998 0.1 2.0999 0.1 2.0999 1.5 0.29998 1.3-1.6999 1.4-1.3999 1.2 2.9998-0.1 2.6998-0.6 5.2997-1.2 5.6996-0.6 0.59996-0.6 0.99994 0.3 1.3999 0.6 0.19998 1.2 0.89994 1.2 1.4999 0 0.69996-0.5 0.59997-1.4-0.1-1.6-1.3999-2.8-5.6996-3.1-11.199-0.1-1.8999-0.4-3.8998-0.7-4.4997-0.4-0.69996-0.4-21.899 0.1-23.299 0.2-0.79995 1.6 1.0999 1.6 2.1999zm338.2 2.8998c-0.3 0.69996-0.5 0.19999-0.5-1.1999 0-1.3999 0.2-1.8999 0.5-1.2999 0.2 0.69996 0.2 1.8999 0 2.4998zm1 4.9997c-0.3 0.69996-0.5 0.19999-0.5-1.1999 0-1.3999 0.2-1.8999 0.5-1.2999 0.2 0.69995 0.2 1.8999 0 2.4998zm2.8 9.6994c2.1 10.199 1.7 12.299-0.5 2.5998-1.9-8.1995-2.4-11.199-1.5-10.399 0.2 0.29998 1.1 3.7998 2 7.7995zm-347-5.8996c-0.3 0.49997-1.2 0.99994-1.8 0.99994-0.7 0-0.6-0.39997 0.3-0.99994 1.9-1.1999 2.3-1.1999 1.5 0zm290.5 18.999c2.6 13.599 3.8 19.199 4.5 21.199 0.4 0.89994-0.6 1.7999-2.8 2.5998-4.5 1.5999-5 1.4999-4.4-0.79995 0.3-1.0999 0.1-6.5996-0.4-12.299-0.9-9.6994-1.8-20.399-2.1-23.699-0.1-0.79996 0-2.5998 0.1-3.9998 0.3-3.8998 2.5 3.3998 5.1 16.999zm11.7-2.2999c2 4.7997 2.6 7.6995 2.7 11.899 0.2 6.1996 2 7.6995 7.8 6.9996 4.6-0.59996 4.8-0.59996 5.5 2.0999 1.1 4.4997 0.7 36.998-0.6 47.797-2.9 22.699-14.3 59.396-20.1 64.496-0.3 0.29999-2.8 3.3998-5.5 6.9996-8.5 11.299-50.4 54.297-55.1 56.497-1.7 0.79995-5.4 1.9999-8.2 2.5998-4.2 0.99994-5.8 0.89994-10.2-0.49997-5.4-1.7999-12.9-6.0996-14.3-8.2995-0.4-0.69996-1.7-1.2999-2.8-1.2999-2.1 0-19.1-12.599-30-22.099-11.5-10.199-22.7-22.199-28.4-30.698-3-4.4997-7.4-10.899-9.8-14.099-2.3-3.2998-5.8-8.1995-7.7-10.999s-4.5-6.3996-5.8-7.9995c-1.2-1.5999-3.8-5.3997-5.7-8.4995-4.5-7.4995-1.4-5.0997 8 6.0996 8.3 9.9994 20.3 21.799 21.2 20.899 0.4-0.29998-2.5-5.1997-6.4-10.899-8.4-12.199-19.1-29.298-22.7-36.498-2.1-4.0998-2.3-5.1997-1.1-5.1997 0.9 0 1.2 0.59996 0.8 1.6999-0.4 0.99994-0.2 1.3999 0.4 0.99994 0.6-0.39998 1.7 0 2.4 0.89994 1 1.1999 7.1 4.3997 8.5 4.3997 0.2 0 0.4-0.99994 0.4-2.1999 0-2.1999 0.1-2.1999 2.5 0.49997 1.4 1.4999 2.9 2.6998 3.3 2.7998 0.4 0 1.6 0.19998 2.7 0.49997 3.3 0.69995 24.6 0.49996 25.8-0.29999 1.9-1.0999-3-2.0999-11.3-2.1999-5-0.1-8.9-0.79995-11.7-1.9999-4.8-2.1999-16.7-13.699-17.5-16.899-0.6-2.0999-0.3-2.1999 6.8-2.1999 6.8 0 7.4 0.19998 7.4 2.0999 0 3.8998 3.3 9.0994 8.3 12.999 4.3 3.3998 5.5 3.8998 10.3 3.8998 4 0 5.9-0.49997 7.3-1.8999 1.1-1.0999 2.7-2.0999 3.8-2.2999 1.4-0.29998 1.8-1.1999 1.7-4.5997 0-2.2999 0.1-4.1997 0.4-4.1997 0.5 0 1.5 0.99994 10.5 10.799 4.7 5.0997 7.5 6.6996 6.3 3.5998-0.3-0.89994-0.6-2.1999-0.6-2.8998 0-0.69996-2-3.9998-4.5-7.2996s-4.5-6.8996-4.5-8.0995c0-2.1999-0.9-3.1998-7.6-7.9995-2.4-1.6999-4.6-4.2997-5.3-6.1996l-1.1-3.1998 7.8 0.59996c8.4 0.59997 15.2 2.4998 13.2 3.6998-0.9 0.49997-0.9 0.89994-0.1 1.3999 1.4 0.89995 3.1-0.1 3.1-1.8999 0-1.5999 4.3-3.0998 6-1.9999 1.9 1.1999 33.1-1.4999 41.1-3.5998 4.1-0.99994 8.6-1.8999 10-1.8999 1.3 0 8.9-1.7999 16.9-3.9998 7.9-2.0999 14.6-3.6998 14.9-3.3998 0.8 0.79995-1.5 2.4998-4.3 2.9998-4.5 0.79996-18.5 6.1996-23.1 8.7995-4.4 2.5998-7.5 6.3996-7.5 9.0994 0 2.1999 2.1 1.4999 15.9-5.6996 6.6-3.3998 12.2-5.6996 13.3-5.4997 1 0.29998 1.8 0.19998 1.8-0.29999 0-0.39997 0.7-0.99993 1.5-1.3999 1.1-0.39998 1.5 0.1 1.5 1.6999 0 1.7999-1.1 2.5998-6.5 4.5997-8.4 2.8998-15.3 8.3995-20.5 16.199-4.7 6.7996-4.6 8.6995 0.3 4.2997 2.9-2.6998 7-5.6996 10.6-7.8995 0.8-0.39998-0.9 2.1999-3.8 5.8996-2.8 3.6998-5.1 7.1996-5.1 7.7995 0 0.49997 2.8-1.5999 6.2-4.6997l6.1-5.6997 1.8 3.2998c0.9 1.8999 2.9 4.4997 4.3 5.7996 2.2 2.0999 3.1 2.2999 7.3 1.6999 2.6-0.29998 6.2-1.3999 8.1-2.3998 4-2.0999 8.5-9.2994 7.7-12.499-0.3-1.1999-0.2-2.6998 0.2-3.2998 1.1-1.5999 7.8-2.9998 6.9-1.4999-0.4 0.59996-1.5 1.0999-2.4 1.0999-1.5 0-1.5 0.19999-0.2 0.99994 1.2 0.79995 1 0.99994-1 0.99994s-2.2 0.19999-1 0.99994c0.8 0.49997 1 0.99994 0.3 0.99994-0.6 0-0.9 0.79995-0.7 1.7999 0.7 2.5998-3.5 8.2995-8.8 11.799-4.9 3.2998-11.8 4.7997-21.2 4.6997-5.5-0.1-7.6 0.39997-7.6 1.8999 0 1.6999 20 0.19999 25.1-1.7999 5.7-2.2999 14.9-7.1996 17-9.0994 1.7-1.3999 3.1-1.5999 7.9-1.0999 3 0.39997 4.1-2.8998 1.5-4.7997-1.5-1.0999-1.4-1.5999 1.1-5.2997 1.4-2.2999 4.3-5.0997 6.3-6.2996 2-1.1999 3.7-2.2999 3.9-2.3999s-0.1-1.0999-0.7-2.1999c-0.8-1.4999-0.8-2.0999 0.1-2.3999 0.6-0.19998 0.9-1.1999 0.5-2.0999-0.7-1.8999-5.3-2.2999-10.3-0.79995l-3.1 0.89995v-12.299c0-6.7996-0.4-15.999-0.8-20.399-0.7-8.2995 0.1-10.299 2.2-5.3997zm-148.1 29.998c0.7 5.2997 0.2 6.0996-2.6 4.2997-1-0.59996-1.5-2.8998-1.6-7.1996 0-3.4998-0.4-8.8995-0.9-12.099-0.4-3.0998-0.4-8.2995 0.1-11.499l0.8-5.6996 1.7 13.499c1 7.3996 2.1 15.899 2.5 18.699zm220.1-25.498c-0.3 0.69996-0.5 0.19999-0.5-1.1999 0-1.3999 0.2-1.8999 0.5-1.2999 0.2 0.69996 0.2 1.8999 0 2.4998zm40.5-1.5999c2 0.59996 2.6 2.3998 2.8 7.8995 0.4 8.2995 0 10.499-1.5 10.499-0.8 0-1.5 0.39998-1.5 0.79995 0 0.49997-0.7 0.89995-1.5 0.89995s-1.5-0.49997-1.5-0.99994c0-0.59996-0.8-0.29998-1.8 0.59996-1.3 1.1999-1.9 1.2999-2 0.49997-1.5-10.899-2.3-19.199-1.9-20.199 0.5-1.2999 4.9-1.2999 8.9 0zm-9.2 23.899c0.2 7.0996 0.2 14.799 0 16.999l-0.2 3.9998-0.9-2.9998c-3.5-10.999-10-38.798-9.2-39.598 0.4-0.39998 2.6-1.1999 4.8-1.6999l4-0.79995 0.7 5.4997c0.3 3.0998 0.7 11.399 0.8 18.599zm-13.1-14.499c0 0.89995-0.4 0.79995-0.9-0.49997-0.5-1.0999-0.9-2.6998-0.9-3.4998 0-0.89995 0.4-0.79996 0.9 0.49997 0.5 1.0999 0.9 2.6998 0.9 3.4998zm-2.6 4.4997c0.9 3.2998 3.2 14.299 5.2 24.498 1.9 10.199 4 20.399 4.5 22.699 0.6 2.2998 1 5.1997 0.9 6.4996-0.1 3.1998-2.4-5.3997-5.5-20.199-1.4-6.8996-3.9-18.399-5.5-25.698-1.6-7.1996-2.9-13.699-2.9-14.399 0-2.6998 1.8 0.79995 3.3 6.5996zm-77-4.0998c-1 1.2999-2 2.1999-2.2 1.9999-0.4-0.39998 2.9-4.3997 3.6-4.3997 0.2 0-0.4 1.0999-1.4 2.3999zm4.4 2.2999c-0.3 0.99994-0.5 0.39997-0.5-1.1999 0-1.6999 0.2-2.3998 0.5-1.7999 0.2 0.69996 0.2 2.0999 0 2.9998zm-311-0.49997c-0.3 0.79995-0.6 0.49997-0.6-0.59997-0.1-1.0999 0.2-1.6999 0.5-1.2999 0.3 0.29999 0.4 1.1999 0.1 1.8999zm320.3 1.9999c0 0.49996-0.4 0.79995-1 0.79995-0.5 0-1-0.99994-1-2.2999 0-1.7999 0.2-1.8999 1-0.69996 0.5 0.79995 1 1.7999 1 2.1999zm68.4 7.7995c0.9 4.6997 2.3 10.999 3.1 13.999 1.5 5.0997 2.6 10.299 4.4 20.699 0.4 2.3998 0.5 4.2997 0.1 4.2997s-1.7-4.5997-2.8-10.299c-5.2-25.298-6.1-29.498-6.7-33.698-1.2-7.7995 0.3-3.8998 1.9 4.9997zm-67.9 5.1997c0.6 9.6994-0.8 31.698-2.1 33.898-0.2 0.29998-1.4 6.2996-2.8 13.199-1.4 6.8996-3.2 13.799-4 15.399l-1.6 2.7998 0.6-2.9998c0.4-1.6999 1.1-3.4998 1.5-4.0998 0.5-0.59997 0.7-1.2999 0.4-1.5999-0.3-0.19999 0.2-3.9998 1-8.3995 0.9-4.2997 1.7-9.2994 2-10.899 0.2-1.6999 0.8-5.8996 1.4-9.4994s1.1-13.799 1.2-22.799c0-8.8995 0.4-16.199 0.9-16.199 0.4 0 1.1 5.0997 1.5 11.199zm-181-4.4997c1.1 8.0995 1 9.2994-1 9.2994-1.2 0-1.5-1.2999-1.4-6.9996 0.2-7.9995 1.5-9.1994 2.4-2.2999zm133.2 4.4997c-2.1 1.3999-2.8 0.89995-1.5-1.1999 0.9-1.2999 1.4-1.5999 2-0.69995 0.4 0.59996 0.2 1.4999-0.5 1.8999zm17.3 1.0999c0 2.9998-0.5 3.5998-4.2 5.1997-2.4 0.99994-4.6 1.9999-4.9 2.1999s-0.5-1.2999-0.5-3.2998c0.2-3.0998 0.7-3.9998 3.6-5.5996 4.9-2.5998 6-2.2999 6 1.4999zm-58 0.69996c0 0.49997-0.6 0.99994-1.4 0.99994s-2.1 0.29998-3 0.59996c-0.9 0.29999-1.6 0.1-1.6-0.39997 0-0.99994 1.9-1.7999 4.8-2.0999 0.6 0 1.2 0.29998 1.2 0.89994zm-8 1.3999c0 0.19998-0.9 0.59996-2 0.89994s-2 0.1-2-0.39997 0.9-0.89995 2-0.89995 2 0.19999 2 0.39998zm50.7 2.2999c0.4 0.89994 0.1 1.8999-0.5 2.0999-0.7 0.19999-1 0.79995-0.6 1.2999 0.3 0.49997-0.1 0.89994-1 0.89994-0.8 0-2.2 0.29998-3 0.59997-1.4 0.49997-1.5 0.19998-0.6-2.1999 1.7-4.3997 4.6-5.6996 5.7-2.6998zm-62-0.1c-0.3 0.29998-1.2 0.39998-1.9 0.1-0.8-0.29999-0.5-0.59997 0.6-0.59997 1.1-0.1 1.7 0.19999 1.3 0.49997zm-5.4 1.0999c-0.7 0.19999-1.9 0.19999-2.5 0-0.7-0.29998-0.2-0.49996 1.2-0.49996s1.9 0.19998 1.3 0.49996zm82.7 0.29999c0 0.49997-0.7 0.99994-1.6 0.99994-0.8 0-1.2-0.49997-0.9-0.99994 0.3-0.59997 1-0.99994 1.6-0.99994 0.5 0 0.9 0.39997 0.9 0.99994zm-149.3 5.5996c0.2 3.8998 0.1 3.9998-2.8 3.5998-2.7-0.39997-2.9-0.69995-2.9-4.6997 0-4.1997 0.1-4.2997 2.8-3.5998 2.3 0.59996 2.7 1.2999 2.9 4.6997zm8.1 1.4999 0.3 5.3997-2.3-2.3998c-1.6-1.5999-1.9-2.4998-1-2.7998 0.6-0.29998 1.2-0.89994 1.2-1.3999 0-0.59997-0.5-0.69996-1-0.39998-0.6 0.29998-1.3-0.1-1.7-0.99994-0.6-1.6999 1.4-3.6998 3.2-3.1998 0.6 0.19998 1.1 2.7998 1.3 5.7996zm29.2-4.5997c-0.7 0.79995-2.2 1.4999-3.4 1.4999-2 0-1.9-0.1 0.4-1.3999 3.4-1.8999 4.5-1.8999 3-0.1zm-51.6 1.0999c0.9 0.29998 1.6 1.4999 1.6 2.5998 0 2.7998-3.4 1.8999-3.8-0.99994-0.4-2.3998-0.2-2.4998 2.2-1.5999zm-94.7 2.5998c-0.3 0.79995-0.6 0.49997-0.6-0.59997-0.1-1.0999 0.2-1.6999 0.5-1.2999 0.3 0.29999 0.4 1.1999 0.1 1.8999zm62.8 19.799c5.2 7.5995 12.6 18.599 16.8 24.998 2.8 4.3997 2.7 4.2997-2.8-1.4999-6.8-7.1996-15.2-19.799-18.8-27.998-2.8-6.2996-2.4-5.8996 4.8 4.4997zm70.1-3.8998c0.3 0.59996-0.5 0.29998-2-0.59997-1.4-0.99994-2.6-1.8999-2.6-2.1999 0-0.69996 3.9 1.6999 4.6 2.7998zm-26.1 6.8996c-0.3 0.49997-1.1 0.99993-1.6 0.99993-0.6 0-0.7-0.49996-0.4-0.99993 0.3-0.59997 1.1-0.99994 1.6-0.99994 0.6 0 0.7 0.39997 0.4 0.99994zm258.2 2.1999c-0.3 0.79995-0.6 0.49997-0.6-0.59996-0.1-1.0999 0.2-1.6999 0.5-1.2999 0.3 0.29998 0.4 1.1999 0.1 1.8999zm-369.7 17.299c0 0.29998-0.7 6.6996-1.6 14.099-1.2 10.499-1.4 21.099-1.1 48.697 0.2 23.499 0 33.898-0.6 31.198-1.5-6.2996-1.4-89.195 0.1-93.294 0.4-1.1999 3.2-1.7999 3.2-0.69995zm283.1 13.899c-1.1 2.6998-2.4 3.6998-1.6 1.0999 0.3-0.79995 0.7-2.1999 1-3.0998 0.3-0.89995 0.8-1.4999 1.1-1.1999 0.2 0.29998 0 1.6999-0.5 3.1998zm87.6-0.19999c-0.3 0.79995-0.6 0.49997-0.6-0.59996-0.1-1.0999 0.2-1.6999 0.5-1.2999 0.3 0.29999 0.4 1.1999 0.1 1.8999zm2.8 7.6995c0.3 0.49997 0.1 1.1999-0.5 1.5999-0.5 0.29998-1-0.1-1-0.89994 0-1.7999 0.6-2.0999 1.5-0.69996zm-93.8 3.2998c-0.3 0.79995-0.6 0.49997-0.6-0.59997-0.1-1.0999 0.2-1.6999 0.5-1.2999 0.3 0.29998 0.4 1.1999 0.1 1.8999zm-272 43.997c-0.2 1.2999-0.4 0.29998-0.4-2.1999 0-2.4998 0.2-3.4998 0.4-2.2998 0.2 1.2999 0.2 3.2998 0 4.4997zm372.3-1.6999c0 2.4998-0.4 4.4997-0.8 4.4997-0.7 0-0.8-2.3998-0.3-7.7995 0.1-0.59997 0.3-1.1999 0.6-1.1999s0.5 1.9999 0.5 4.4997zm6.7 4.6997c-0.3 0.79995-0.6 0.49997-0.6-0.59997-0.1-1.0999 0.2-1.6999 0.5-1.2999 0.3 0.29998 0.4 1.1999 0.1 1.8999zm-63 1.9999c-0.3 0.79995-0.6 0.49996-0.6-0.59997-0.1-1.0999 0.2-1.6999 0.5-1.2999 0.3 0.29998 0.4 1.1999 0.1 1.8999zm56.1 5.9996c-0.3 4.3997-1.7 9.3994-4.7 16.499-2.4 5.6996-4.7 10.299-5.2 10.299-0.8 0 0.3-2.9998 5.7-16.599 1.4-3.3998 2.4-6.4996 2.3-6.9996-0.5-2.9998 0.3-9.3994 1.2-9.3994 0.8 0 1 2.0999 0.7 6.1996zm-369.4 13.999c0.3 3.1998 0.2 5.7996-0.2 5.7996-0.9 0-0.8 0.29998-1.6-14.499-0.4-9.0994-0.4-9.7994 0.4-3.9998 0.4 3.7998 1.1 9.5994 1.4 12.699zm313.3-8.4995c-0.2 1.5999-0.4 0.29998-0.4-2.6998 0-2.9998 0.2-4.2997 0.4-2.7998 0.2 1.5999 0.2 3.9998 0 5.4997zm33.8-5.6996c0.3 0.49997 0.1 0.99994-0.4 0.99994-0.6 0-1.1-0.49997-1.1-0.99994 0-0.59996 0.2-0.99994 0.4-0.99994 0.3 0 0.8 0.39998 1.1 0.99994zm-303.8 8.1995c-0.3 0.79995-0.6 0.49997-0.6-0.59996-0.1-1.0999 0.2-1.6999 0.5-1.2999 0.3 0.29998 0.4 1.1999 0.1 1.8999zm303 0.99994c-0.3 0.79995-0.6 0.49997-0.6-0.59996-0.1-1.0999 0.2-1.6999 0.5-1.2999 0.3 0.29998 0.4 1.1999 0.1 1.8999zm-299.3 29.498c0.4 3.0998 0.2 4.2997-0.7 4.2997-0.7 0-1.2-1.3999-1.3-3.2998 0-1.6999-0.5-8.3995-1.1-14.699-0.7-6.2996-0.9-11.899-0.5-12.499 0.4-0.49997 1.2 4.1997 1.8 10.499 0.7 6.2996 1.5 13.399 1.8 15.699zm265.9-20.499c0.2 2.6998 0.1 4.7997-0.4 4.7997s-0.9-2.5998-0.8-5.7996c0.1-6.3996 0.5-5.9996 1.2 0.99994zm-8.9-2.6998c1.7 1.2999 1.8 1.4999 0.3 1.4999-0.9 0-1.7-0.59996-1.8-1.2999 0-0.79995-0.2-0.79995-0.5-0.1-0.3 0.69996-1.5 0.89994-2.7 0.59996-2-0.49997-2.1-0.39997-0.7 1.3999s1.4 1.7999-0.3 0.49997c-1.8-1.3999-1.8-1.5999-0.1-2.7998 2.3-1.5999 3.4-1.5999 5.8 0.19998zm5.4 9.9994c-0.4 2.7998-0.5 2.6998-1.7-1.6999-0.7-2.5998-1.7-4.4997-2.1-4.2997-0.5 0.29998-1.1 0.1-1.4-0.39998-0.4-0.49996 0.2-1.0999 1.1-1.2999 2.3-0.39997 4.5 3.6998 4.1 7.6995zm-6.3-4.6997c-0.3 0.29998-1.1 0-1.8-0.69996-0.9-0.99994-0.8-1.0999 0.6-0.49997 1 0.29999 1.5 0.89995 1.2 1.1999zm-314.8 2.8998c-0.3 0.99994-0.5 0.39998-0.5-1.1999 0-1.6999 0.2-2.3999 0.5-1.7999 0.2 0.69995 0.2 2.0999 0 2.9998zm12.6 0.99994c0.4 2.1999 0.3 3.2998-0.5 3.2998-0.6 0-0.9-0.29998-0.5-0.59996 0.3-0.29998 0.2-1.5999-0.3-2.8998-0.5-1.2999-0.6-2.5998-0.3-2.8998 0.8-0.79995 0.9-0.59996 1.6 3.0998zm365.9 1.5999c-0.6 1.1999-2.1 4.6997-3.5 7.6995-2.4 5.3997-14.5 20.599-15.5 19.599-0.3-0.29998 1.3-2.4998 3.6-4.9997 5.3-5.6996 8.8-11.499 11.4-18.399 2.5-6.5996 4-8.9994 4.6-7.1996 0.3 0.69995 0 2.1999-0.6 3.2998zm-158.7 4.6997c-1 1.0999-2 1.7999-2.3 1.5999-0.5-0.59996 2.1-3.4998 3.2-3.5998 0.5 0 0.1 0.89995-0.9 1.9999zm-205.8 0.19999c0.1 0.69995 0.6 3.6998 1.2 6.6996 1.5 7.2996 1.3 9.5994-0.4 4.1997-2-6.3996-2.8-12.099-1.8-12.099 0.6 0 1 0.59996 1 1.1999zm13.1 3.3998c0 1.7999-0.3 2.1999-0.9 1.2999-1.1-1.7999-1.1-3.8998 0-3.8998 0.5 0 0.9 1.1999 0.9 2.5998zm-29 1.8999c-0.3 0.29998-0.9-0.19999-1.2-1.1999-0.6-1.3999-0.5-1.4999 0.5-0.59997 0.7 0.69996 1 1.4999 0.7 1.7999zm349.2-1.4999c0 0.49997-0.5 0.99994-1.1 0.99994-0.5 0-0.7-0.49997-0.4-0.99994 0.3-0.59996 0.8-0.99994 1.1-0.99994 0.2 0 0.4 0.39998 0.4 0.99994zm-279.2 4.1998c-0.3 0.69995-1.4 1.3999-2.6 1.5999-1.6 0.29998-2-0.1-1.6-1.1999 0.7-1.8999 4.8-2.1999 4.2-0.39997zm-69.1 4.4997c-0.3 0.99994-0.5 0.19999-0.5-1.6999 0-1.8999 0.2-2.6998 0.5-1.7999 0.2 0.99994 0.2 2.5998 0 3.4998zm181.3-4.3997c0 0.19999-1.2 1.3999-2.7 2.7998l-2.8 2.3998 2.4-2.7998c2.3-2.4998 3.1-3.1998 3.1-2.3998zm-126.8 3.8998c-0.9 0.89995-1.2 0.69996-1.2-1.1999 0-1.8999 0.3-2.0999 1.2-1.1999 0.9 0.89994 0.9 1.4999 0 2.3998zm159.8-1.6999c0.4-0.29998 0.6 0.39997 0.3 1.4999-0.7 2.4998-1.6 1.7999-1.9-1.2999-0.2-1.1999 0-1.5999 0.2-0.89994 0.3 0.59996 0.9 0.99994 1.4 0.69996zm-144.7 5.1997c-0.4 1.0999-0.8 1.2999-1.1 0.49997-0.2-0.69996-0.9-0.89995-1.4-0.59996-0.7 0.39997-0.8 0.19998-0.4-0.39998 1.2-1.8999 3.6-1.4999 2.9 0.49997zm139.2 2.2999c-1.8 3.4998-2.4 3.7998-2.2 1.0999 0-1.0999 0.4-1.7999 0.8-1.4999 0.4 0.19999 0.9-0.29998 1.3-1.0999 0.3-0.79995 0.8-1.4999 1.1-1.4999s-0.1 1.2999-1 2.9998zm-187.8 5.7996c0.8 1.8999 1.3 3.5998 1 3.7998-0.5 0.49997-3.4-6.0996-4.1-9.5994l-0.6-2.4998 1.1 2.4998c0.7 1.3999 1.8 3.9998 2.6 5.7996zm196-5.5996c-0.3 0.79995-0.6 0.49997-0.6-0.59997-0.1-1.0999 0.2-1.6999 0.5-1.2999 0.3 0.29998 0.4 1.1999 0.1 1.8999zm-156.3 1.3999c0.3 0.79995 0.2 1.1999-0.4 0.89995-0.6-0.29999-1-0.99994-1-1.5999 0-1.3999 0.7-1.0999 1.4 0.69996zm117.6 2.4998c-0.7 1.0999-1.4 1.7999-1.7 1.4999s0-1.1999 0.7-2.0999c1.8-2.0999 2.3-1.8999 1 0.59996zm27.9 0.49997c0.4-0.29998 0.8 0.1 0.8 0.89994 0 0.79995-0.6 1.4999-1.4 1.4999-0.7 0-1.3-0.49997-1.3-1.0999 0-0.49997-0.6-0.69996-1.2-0.29998-0.8 0.49997-0.7 0.1 0.2-0.99994 0.8-1.0999 1.6-1.3999 1.8-0.69996 0.2 0.59996 0.7 0.89995 1.1 0.69996zm7.6 0.79995c0 1.6999-0.3 2.1999-1.2 1.4999-1.4-1.1999-1.8-0.49997-2.8 4.0998-1.1 5.3997-3.3 8.9994-5 8.3995-0.8-0.39997-1.5-0.89994-1.5-1.2999 0-1.3999 9.4-15.099 10.4-15.099 0.1 0 0.1 1.0999 0.1 2.3998zm-73.5-0.69996c0 0.49997-0.7 1.6999-1.5 2.6998-1.5 1.9999-2 0.99994-0.9-1.7999 0.6-1.5999 2.4-2.1999 2.4-0.89995zm4.3 3.9998c-0.4 0.89994-1.8 3.8998-3.2 6.6996-2.1 4.3997-2.6 4.7997-2.9 2.7998-0.2-1.4999 0.5-3.2998 1.7-4.5997 1.2-1.1999 1.8-2.5998 1.4-3.0998-0.5-0.39998-0.3-0.49997 0.3-0.19999 0.7 0.39998 1.4-0.19999 1.7-1.2999s0.8-1.9999 1.1-1.9999 0.2 0.79995-0.1 1.6999zm-143.3 0.49997c0 0.39997-0.7 0.79995-1.5 0.79995s-1.5-0.39998-1.5-0.79995c0-0.49997 0.7-0.89995 1.5-0.89995s1.5 0.39998 1.5 0.89995zm214.1 1.4999c-1.2 1.9999-1.4 1.3999-0.5-1.1999 0.4-0.89995 0.9-1.3999 1.1-1.0999 0.3 0.19998 0 1.2999-0.6 2.2999zm-40.1-0.99994c0 0.19998-1.1 1.4999-2.5 2.8998-2.8 2.7998-3 2.5998-1.4-0.89995 0.6-1.2999 1.7-2.3998 2.5-2.3998s1.4 0.19999 1.4 0.39998zm-11.5 2.2999c0.3 0.49997-0.1 0.99994-1 0.99994s-1.3-0.49997-1-0.99994c0.3-0.59997 0.8-0.99994 1-0.99994s0.7 0.39997 1 0.99994zm65.2 1.1999c-0.3 0.79995-0.6 0.49997-0.6-0.59996-0.1-1.0999 0.2-1.6999 0.5-1.2999 0.3 0.29998 0.4 1.1999 0.1 1.8999zm-228 1.9999c-0.3 0.69996-0.5 0.19999-0.5-1.1999 0-1.3999 0.2-1.8999 0.5-1.2999 0.2 0.69996 0.2 1.8999 0 2.4998zm180.5 0c-0.6 0.59996-1.5 0.79995-1.9 0.39998-0.4-0.39998-0.1-1.0999 0.7-1.5999 1.9-1.1999 2.7-0.29998 1.2 1.1999zm86.8 1.3999c-1.8 2.0999-2.4 0.99993-0.8-1.4999 0.7-1.1999 1.4-1.6999 1.6-1.0999 0.2 0.59997-0.2 1.6999-0.8 2.5998zm-114-1.5999c0 0.49997-0.4 0.99994-1 0.99994-0.5 0-1 0.59997-1 1.3999 0 0.69995-0.9 2.4998-2 3.7998-1 1.3999-1.6 2.8998-1.2 3.2998 0.4 0.49997 0.2 0.49997-0.5 0.1-0.7-0.39998-1.7 0.19998-2.3 1.4999-0.8 1.4999-0.9 1.8999-0.1 1.4999 2-1.2999 1.1 0.79996-1.9 4.3997-2.9 3.3998-2.9 3.4998-3 0.99993-0.1-1.3999-0.3-3.4998-0.6-4.5997-0.5-2.6998 3.3-7.6995 5.3-6.9996 0.8 0.29998 1.1 0.1 0.8-0.39997-0.3-0.59997-0.1-0.99994 0.4-0.99994 0.6 0 1.1-1.1999 1.2-2.7998 0-2.2999 0.1-2.3998 0.8-0.69996 0.8 1.8999 0.8 1.8999 2.2-0.29998 1.4-2.2999 2.9-2.8998 2.9-1.1999zm58.1 1.2999c-1 0.89995-1.1 0.79996-0.5-0.59996 0.3-0.99994 0.9-1.4999 1.2-1.1999 0.3 0.29999 0 1.0999-0.7 1.7999zm-53.2 2.2999c-1.7 2.0999-3.1 1.6999-1.7-0.49997 0.7-1.0999 1.6-1.6999 2-1.3999 0.5 0.19999 0.4 1.0999-0.3 1.8999zm10.1-1.1999c0 0.19998-0.7 0.69995-1.6 0.99994-0.8 0.29998-1.2 0.19998-0.9-0.39998 0.6-0.99994 2.5-1.3999 2.5-0.59996zm60 0.59996c0 0.49997-0.5 0.99994-1.1 0.99994-0.5 0-0.7-0.49997-0.4-0.99994 0.3-0.59996 0.8-0.99994 1.1-0.99994 0.2 0 0.4 0.39998 0.4 0.99994zm-4.1 2.0999c-2.2 1.3999-3.3 0.99994-1.9-0.59996 0.7-0.79995 1.7-1.1999 2.2-0.89995 0.6 0.39998 0.5 0.99994-0.3 1.4999zm-20.1 0.79995c0.2 0.1 0 0.59997-0.3 1.0999-0.5 0.79995-1.1 0.79995-1.9 0.1-0.7-0.59996-1.6-0.79995-1.9-0.39998-0.4 0.29999-0.7 0.1-0.7-0.49997 0-0.99993 1.6-1.0999 4.8-0.29998zm-47.8 1.0999c0 0.49997-0.7 0.99993-1.6 0.99993-0.8 0-1.2-0.49996-0.9-0.99993 0.3-0.59997 1-0.99994 1.6-0.99994 0.5 0 0.9 0.39997 0.9 0.99994zm106 3.3998c-2.6 2.6998-3.6 1.3999-1.4-1.8999 1.3-1.9999 1.9-2.2999 2.5-1.2999 0.5 0.79995 0.1 1.9999-1.1 3.1998zm-247-2.9998c0 0.19999-0.8 0.99994-1.7 1.6999-1.6 1.2999-1.7 1.1999-0.4-0.39998s2.1-2.0999 2.1-1.2999zm149.1 2.8998c-1 0.89995-1.1 0.79996-0.5-0.59996 0.3-0.99994 0.9-1.4999 1.2-1.1999 0.3 0.29999 0 1.0999-0.7 1.7999zm-10.2 0.89995c-0.5 0.99994-1.4 1.7999-1.9 1.7999-0.6 0-1-0.79995-1-1.7999 0-1.0999 0.7-1.7999 1.9-1.7999 1.6 0 1.7 0.39997 1 1.7999zm81.1-0.29998c-1 1.9999-3 3.6998-3 2.6998 0-0.59996 3.3-4.5997 3.8-4.5997 0.1 0-0.2 0.89995-0.8 1.8999zm19.3 0c0.3 1.3999 0.1 1.7999-0.9 1.3999-1.5-0.59996-1.8-1.5999-0.7-2.5998 0.9-0.99994 1-0.89994 1.6 1.1999zm-6.8 1.0999c0.3 0.49997-0.1 0.99994-1 0.99994s-1.3-0.49997-1-0.99994c0.3-0.59996 0.8-0.99994 1-0.99994s0.7 0.39998 1 0.99994zm-84.5 0.89995c0 0.49997-0.9 1.8999-2 3.1998l-2.1 2.3998 1.6-3.2998c1.5-3.0998 2.5-4.0998 2.5-2.2999zm58.1 3.4998c1.5-0.89994 1 0.19999-0.6 1.5999-1.3 0.99994-1.5 0.89995-1.4-1.0999 0-1.2999 0.3-1.7999 0.6-1.0999 0.2 0.59996 0.9 0.99994 1.4 0.59996zm8.6 2.5998c-1.2 2.1999-2.6 3.9998-3.1 3.9998s-0.4-0.59996 0.1-1.2999c0.5-0.59997 1.7-2.3999 2.6-3.9998 2.6-4.0998 2.8-3.2998 0.4 1.2999zm25.6-1.4999c-0.3 0.89995-0.8 1.3999-1 1.0999-0.3-0.29998-0.2-0.89995 0.2-1.4999 0.9-1.5999 1.5-1.2999 0.8 0.39997zm-282 8.7995c0.3 0.79995-0.1 1.3999-0.8 1.3999s-1.1-0.59996-0.8-1.3999c0.3-0.69996 0.6-1.2999 0.8-1.2999s0.5 0.59996 0.8 1.2999zm236.7 0.1c0 0.29998-0.4 0.79995-1 1.0999-0.5 0.29999-1 0.1-1-0.39997 0-0.59996 0.5-1.0999 1-1.0999 0.6 0 1 0.19998 1 0.39997z" stroke-width=".99997"/>
  <path d="m43.1 127c0 0.8 0.4 2.2 0.9 3 1.2 1.8 1.2 0.2 0-2.5-0.6-1.3-0.9-1.5-0.9-0.5z"/>
  <path d="m10.2 167c0 1.4 0.2 1.9 0.5 1.2 0.2-0.6 0.2-1.8 0-2.5-0.3-0.6-0.5-0.1-0.5 1.3z"/>
  <path d="m178.9 242.5c-0.3 0.2-3 0.5-6.1 0.6-4.4 0.2-5.5 0.5-5.1 1.6 0.4 1 1.4 1.3 3.2 0.8 6.9-1.6 10.1-2.6 10.1-3 0-0.6-1.5-0.6-2.1 0z"/>
  <path d="m225.7 293.1c-3.7 1.9-5.6 4.4-4.3 5.6 0.3 0.3 3.3-1.3 6.7-3.6 4.9-3.2 5.7-4.1 3.8-4.1-1.3 0.1-4.1 1-6.2 2.1z"/>
  <path d="m209 293.9c0 1.4 1.1 2.1 4.2 2.9 2.3 0.6 4.4 1 4.5 0.8 0.2-0.2-0.8-1.5-2.1-2.9-2.9-3.2-6.6-3.6-6.6-0.8z"/>
  <ellipse cx="225.48" cy="323.01" rx="17.775" ry="5.9995" fill="#fff" fill-rule="evenodd"/>
  <path d="m230.9 312c-1.5 0.9-3.7 1.1-9.9 0.9-12.8-0.4-14.7-0.2-19 1.9-3.6 1.7-5.2 2-7.8 1.3-3.7-1.1-7.2-0.4-7.2 1.4 0 0.7 1.6 1.5 3.6 1.8 3.2 0.5 7 3.3 12.3 9 4.7 5.1 6.8 7 11 9.8s5.1 3 10.4 2.5c8.6-0.9 16.5-3.4 18.3-5.9 0.8-1.2 3.1-4.8 5-7.9 2.9-4.7 4.1-5.8 7-6.4 2.7-0.5 3.4-1.1 3.4-2.9 0-2.2-2-2.9-3.5-1.3-0.4 0.3-4.5-0.7-9.3-2.3-9.1-3.1-11.7-3.4-14.3-1.9zm7.8 10.4c-3.5 2.7-14.7 4.7-21.5 3.9-9.5-1.2-7.6-2.8 3.6-3 5.3-0.1 11.1-0.6 12.7-1.1 1.7-0.6 3.9-1.1 5-1.1 1.9 0 1.9 0 0.2 1.3z" fill="#500"/>
  <path d="m241.5 395c0.3 0.5 0.8 1 1.1 1 0.2 0 0.4-0.5 0.4-1 0-0.6-0.5-1-1.1-1-0.5 0-0.7 0.4-0.4 1z"/>
  <path d="m0.2 109c0 1.4 0.2 1.9 0.5 1.2 0.2-0.6 0.2-1.8 0-2.5-0.3-0.6-0.5-0.1-0.5 1.3z"/>
</svg>
