<?xml version="1.0" encoding="UTF-8"?>
<svg width="92.595mm" height="22.599mm" version="1.1" viewBox="0 0 92.595 22.599" xmlns="http://www.w3.org/2000/svg">
  <title>Komayō</title>
  <g stroke-width="3.2132">
    <g fill="#333">
      <path d="m15.293 17.763h-4.2542c0-0.39897-0.73291-1.7737-2.1987-4.1241-1.5612-2.5066-2.667-3.7598-3.3175-3.7598h-0.39029c0 1.9775 0.0477 4.6055 0.14311 7.8842h-3.6688c0.11275-2.6193 0.16913-5.5726 0.16913-8.8596 0-3.157-0.056374-5.85-0.16913-8.0791h3.6688c-0.095406 2.4025-0.14311 4.6575-0.14311 6.765h0.28622c0.38162 0 1.3444-1.0668 2.8882-3.2004 1.5005-2.0729 1.9222-3.2611 1.9222-3.5647h4.2054c0 0.28622-0.79358 1.366-2.3808 3.2394-1.6393 1.9341-2.8362 3.1657-3.5907 3.6948v0.19515c0.88464 0.45968 2.2767 2.1727 4.1761 5.1389 1.7693 2.758 2.654 4.3149 2.654 4.6705z" aria-label="K"/>
      <path d="m29.655 10.803q0.53802 3.234-1.148 5.3873t-4.381 2.6016q-2.5667 0.42701-4.6773-0.92318-2.1127-1.363-2.6145-4.3789-0.54016-3.2468 1.1566-5.4151 1.6967-2.1682 4.3917-2.6166 2.5539-0.42487 4.6559 0.95316 2.1127 1.363 2.6166 4.3917zm-3.2855 0.94225q-0.30958-1.8609-1.3915-2.9733-1.084-1.1253-2.4829-0.89261-1.3603 0.22632-2.0238 1.55-0.6506 1.3216-0.35595 3.0926 0.30958 1.8608 1.3936 2.9861 1.0819 1.1125 2.4807 0.87978 1.3603-0.22631 2.0109-1.5479 0.66343-1.3237 0.36878-3.0947z" aria-label="o"/>
      <path d="m51.417 17.008h-3.4476c0.18214-2.1943 0.2732-4.3279 0.2732-6.4005 0-1.5525-0.19949-2.5673-0.59845-3.0443-0.39897-0.47702-1.0364-0.71553-1.9124-0.71553-0.70252 0-1.4441 0.25586-2.2247 0.76756-0.03469 1.0841-0.05204 2.0555-0.05204 2.9142 0 1.4484 0.02602 3.608 0.07806 6.4791h-3.4866c0.19081-2.3765 0.28622-4.6879 0.28622-6.9341 0-1.1622-0.16479-1.9905-0.49437-2.4849-0.32091-0.49437-0.99308-0.74154-2.0165-0.74154-0.94536 0-1.7303 0.31657-2.3548 0.94968 0.04337 3.4346 0.06505 6.5048 0.06505 9.2109h-3.4997c0.15612-2.706 0.23418-4.8396 0.23418-6.4005 0-2.0295-0.34799-3.5982-0.77296-5.4803l3.466-0.75138 0.22117 1.379h0.20815c1.1275-1.0234 2.3981-1.5352 3.8118-1.5352 1.7693 0 3.014 0.51172 3.7338 1.5352h0.20816c1.2836-1.0234 2.5543-1.5352 3.8118-1.5352 1.4745 0 2.5846 0.32091 3.3305 0.96275 0.75455 0.63316 1.1319 1.7867 1.1319 3.4606 0 0.16479-0.0087 0.48136-0.02602 0.94974-0.01732 0.45968-0.02602 0.77194-0.02602 0.93673 0 1.4484 0.01732 3.608 0.05203 6.4791z" aria-label="m"/>
      <path d="m64.174 16.474-2.9872 0.30707c-0.14174-0.36313-0.29594-0.87007-0.29834-1.165l-0.16912 0.0012c-0.94734 0.82307-2.2319 1.2412-3.8538 1.2545-1.0841 0.0088-1.9886-0.28302-2.7133-0.87559-0.71613-0.60127-1.0783-1.4007-1.0864-2.398-0.01073-1.3183 0.5355-2.4026 1.6388-3.2529 1.112-0.85041 3.064-1.313 5.8563-1.3879 0.01607-0.15626 0.02356-0.30377 0.02242-0.44253-0.007613-0.93667-0.23816-1.5506-0.69155-1.8418-0.45347-0.29987-1.283-0.44488-2.4885-0.43504-1.3096 0.010688-2.5874 0.19459-3.8335 0.55171l0.26666-2.3961c1.1762-0.41726 2.8398-0.63466 4.9906-0.65222 1.5698-0.012817 2.7824 0.30687 3.6377 0.95909 0.86402 0.6521 1.3027 1.8021 1.3162 3.4499 3e-3 0.36426-0.0091 1.0279-0.03579 1.9908-0.01816 0.96293-0.0259 1.6048-0.02332 1.9257 0.01469 1.7953 0.16544 3.2642 0.45231 4.4068zm-3.4956-2.6776c-0.06159-1.1704-0.09586-2.1806-0.1028-3.0306-2.9574 0.02416-4.4301 0.78638-4.4178 2.2869 0.0085 1.032 0.66313 1.5428 1.964 1.5322 1.0234-0.0083 1.8756-0.27118 2.5566-0.78848z" aria-label="a"/>
      <path d="m77.884 4.4369c0 0.56376-0.62015 2.3504-1.8604 5.36-1.4137 3.4606-2.2854 5.8197-2.6149 7.0773-0.56376 2.1683-1.3227 3.6644-2.2767 4.4884-0.91935 0.79796-2.2984 1.1969-4.1371 1.1969l-1.8087 0.04418c1.0754 0 3.1528-1.7954 3.8467-2.4112 0.69383-0.60714 1.3966-2.49 1.3966-3.5134 0-1.0321-0.78057-3.2871-2.3418-6.765-1.5612-3.4866-2.3418-5.3123-2.3418-5.4771h4.02c0 0.30356 0.39463 1.7737 1.1839 4.4103s1.1839 4.2499 1.1839 4.8396h0.18214c0-0.50304 0.3556-1.9862 1.0668-4.4493 0.71984-2.4719 1.0798-4.0721 1.0798-4.8006z" aria-label="y"/>
      <path d="m92.595 12.374c0 2.1857-0.67218 3.8943-2.0165 5.1258-1.3444 1.2316-2.9272 1.6151-4.7486 1.6151-1.7346 0-3.2221-0.32714-4.4623-1.446-1.2402-1.1275-1.8604-2.7104-1.8604-4.7486 0-2.1943 0.6765-3.9116 2.0295-5.1518s2.9402-1.8604 4.7616-1.8604c1.726 0 3.2048 0.56809 4.4363 1.7043 1.2402 1.1275 1.8604 2.7147 1.8604 4.7616zm-3.3956 0.3903c0-1.2576-0.29489-2.3114-0.8847-3.1614-0.58978-0.85862-1.3574-1.288-2.3027-1.288-0.91935 0-1.6696 0.39897-2.2507 1.1969-0.57243 0.79795-0.85862 1.7954-0.85862 2.9923 0 1.2576 0.29489 2.3158 0.88464 3.1744 0.58978 0.84999 1.396 1.0814 2.3415 1.0814 0.91935 0 1.6265-0.2054 2.199-1.0033 0.58111-0.79796 0.87163-1.7954 0.87163-2.9923zm0.42932-11.292-0.0012 2.2637h-8.1936l0.03183-2.2637z" aria-label="ō"/>
    </g>
    <g fill="#fff">
      <path d="m13.686 16.943h-4.2542c0-0.39897-0.73291-1.7737-2.1987-4.1241-1.5612-2.5066-2.667-3.7598-3.3175-3.7598h-0.39029c0 1.9775 0.0477 4.6055 0.14311 7.8842h-3.6688c0.11275-2.6193 0.16913-5.5726 0.16913-8.8596 0-3.157-0.056374-5.85-0.16913-8.0791h3.6688c-0.095406 2.4025-0.14311 4.6575-0.14311 6.765h0.28622c0.38162 0 1.3444-1.0668 2.8882-3.2004 1.5005-2.0729 1.9222-3.2611 1.9222-3.5647h4.2054c0 0.28622-0.79358 1.366-2.3808 3.2394-1.6393 1.9341-2.8362 3.1657-3.5907 3.6948v0.19515c0.88464 0.45968 2.2767 2.1727 4.1761 5.1389 1.7693 2.758 2.654 4.3149 2.654 4.6705z" aria-label="K"/>
      <path d="m28.049 9.9833q0.53802 3.234-1.148 5.3873t-4.381 2.6016q-2.5667 0.42701-4.6773-0.92318-2.1127-1.363-2.6145-4.3789-0.54016-3.2468 1.1566-5.4151 1.6967-2.1682 4.3917-2.6166 2.5539-0.42487 4.6559 0.95316 2.1127 1.363 2.6166 4.3917zm-3.2855 0.94225q-0.30958-1.8609-1.3915-2.9733-1.084-1.1253-2.4829-0.89261-1.3603 0.22632-2.0238 1.55-0.6506 1.3216-0.35595 3.0926 0.30958 1.8608 1.3936 2.9861 1.0819 1.1125 2.4807 0.87978 1.3603-0.22631 2.0109-1.5479 0.66343-1.3237 0.36878-3.0947z" aria-label="o"/>
      <path d="m49.811 16.188h-3.4476c0.18214-2.1943 0.2732-4.3279 0.2732-6.4005 0-1.5525-0.19949-2.5673-0.59845-3.0443-0.39897-0.47702-1.0364-0.71553-1.9124-0.71553-0.70252 0-1.4441 0.25586-2.2247 0.76756-0.03469 1.0841-0.05204 2.0555-0.05204 2.9142 0 1.4484 0.02602 3.608 0.07806 6.4791h-3.4866c0.19081-2.3765 0.28622-4.6879 0.28622-6.9341 0-1.1622-0.16479-1.9905-0.49437-2.4849-0.32091-0.49437-0.99308-0.74154-2.0165-0.74154-0.94536 0-1.7303 0.31657-2.3548 0.94968 0.04336 3.4346 0.06505 6.5048 0.06505 9.2109h-3.4997c0.15612-2.706 0.23418-4.8396 0.23418-6.4005 0-2.0295-0.34799-3.5982-0.77296-5.4803l3.466-0.75138 0.22117 1.379h0.20815c1.1275-1.0234 2.3981-1.5352 3.8118-1.5352 1.7693 0 3.014 0.51172 3.7338 1.5352h0.20816c1.2836-1.0234 2.5543-1.5352 3.8118-1.5352 1.4745 0 2.5846 0.32091 3.3305 0.96275 0.75455 0.63316 1.1319 1.7867 1.1319 3.4606 0 0.16479-0.0087 0.48136-0.02602 0.94974-0.01732 0.45968-0.02602 0.77194-0.02602 0.93673 0 1.4484 0.01732 3.608 0.05203 6.4791z" aria-label="m"/>
      <path d="m62.567 15.654-2.9872 0.30707c-0.14174-0.36313-0.29594-0.87007-0.29834-1.165l-0.16912 0.0012c-0.94734 0.82307-2.2319 1.2412-3.8538 1.2545-1.0841 0.0088-1.9886-0.28302-2.7133-0.87559-0.71613-0.60127-1.0783-1.4007-1.0864-2.398-0.01073-1.3183 0.5355-2.4026 1.6388-3.2529 1.112-0.85041 3.064-1.313 5.8563-1.3879 0.01607-0.15626 0.02356-0.30377 0.02242-0.44253-0.007613-0.93667-0.23816-1.5506-0.69155-1.8418-0.45347-0.29987-1.283-0.44488-2.4885-0.43504-1.3096 0.010688-2.5874 0.19459-3.8335 0.55171l0.26666-2.3961c1.1762-0.41726 2.8398-0.63466 4.9906-0.65222 1.5698-0.012817 2.7824 0.30687 3.6377 0.95909 0.86402 0.6521 1.3027 1.8021 1.3162 3.4499 3e-3 0.36426-0.0091 1.0279-0.03579 1.9908-0.01816 0.96293-0.0259 1.6048-0.02332 1.9257 0.01469 1.7953 0.16544 3.2642 0.45231 4.4068zm-3.4956-2.6776c-0.06159-1.1704-0.09586-2.1806-0.1028-3.0306-2.9574 0.024159-4.4301 0.78638-4.4178 2.2869 0.0085 1.032 0.66313 1.5428 1.964 1.5322 1.0234-0.0083 1.8756-0.27118 2.5566-0.78848z" aria-label="a"/>
      <path d="m76.277 3.6169c0 0.56376-0.62015 2.3504-1.8604 5.36-1.4137 3.4606-2.2854 5.8197-2.6149 7.0773-0.56376 2.1683-1.3227 3.6644-2.2767 4.4884-0.91935 0.79796-2.2984 1.1969-4.1371 1.1969l-1.8087 0.04418c1.0754 0 3.1528-1.7954 3.8467-2.4112 0.69383-0.60714 1.3966-2.49 1.3966-3.5134 0-1.0321-0.78057-3.2871-2.3418-6.765-1.5612-3.4866-2.3418-5.3123-2.3418-5.4771h4.02c0 0.30356 0.39463 1.7737 1.1839 4.4103s1.1839 4.2499 1.1839 4.8396h0.18214c0-0.50304 0.3556-1.9862 1.0668-4.4493 0.71984-2.4719 1.0798-4.0721 1.0798-4.8006z" aria-label="y"/>
      <path d="m90.988 11.554c0 2.1857-0.67218 3.8943-2.0165 5.1258-1.3444 1.2316-2.9272 1.6151-4.7486 1.6151-1.7346 0-3.2221-0.32714-4.4623-1.446-1.2402-1.1275-1.8604-2.7104-1.8604-4.7486 0-2.1943 0.6765-3.9116 2.0295-5.1518s2.9402-1.8604 4.7616-1.8604c1.726 0 3.2048 0.56809 4.4363 1.7043 1.2402 1.1275 1.8604 2.7147 1.8604 4.7616zm-3.3956 0.3903c0-1.2576-0.29489-2.3114-0.8847-3.1614-0.58978-0.85862-1.3574-1.288-2.3027-1.288-0.91935 0-1.6696 0.39897-2.2507 1.1969-0.57243 0.79795-0.85862 1.7954-0.85862 2.9923 0 1.2576 0.29489 2.3158 0.88464 3.1744 0.58978 0.84999 1.396 1.0814 2.3415 1.0814 0.91935 0 1.6265-0.2054 2.199-1.0033 0.58111-0.79796 0.87163-1.7954 0.87163-2.9923zm0.42932-11.292-0.001199 2.2637h-8.1936l0.03183-2.2637z" aria-label="ō"/>
    </g>
  </g>
</svg>
