<?xml version="1.0" encoding="UTF-8"?>
<svg width="2048" height="2048" version="1.0" viewBox="0 0 2048 2048" xmlns="http://www.w3.org/2000/svg">
 <g transform="matrix(7.8739 0 0 7.8739 -5.735e-6 -1.147e-5)">
  <ellipse cx="133.1" cy="140.36" rx="80.949" ry="109.02" fill="#f9f9f7" fill-rule="evenodd" stroke-width="1.088"/>
  <path d="m90 2.5c-12.7 2.8-23.3 7.5-29.5 12.9-5.6 4.9-6.3 5.8-7 8.4-0.7 3-4.9 7.2-7.1 7.2-0.8 0-1.7 0.6-2 1.4s-1.5 1.7-2.7 2c-2.6 0.6-13.2 11.4-16.8 17.1-3.1 4.8-8.9 17.1-8.9 18.9 0 0.6-0.4 1.6-0.9 2.2-1.2 1.3-6.6 18.4-8.5 27.4-0.9 4.1-2.8 11.2-4.1 15.6l-2.5 8.2v136.2h91l-0.6-8.5c-0.6-7.2-0.5-8.5 0.8-8.5 1.8 0 5.1 3.4 4.1 4.3-0.3 0.4-0.1 0.7 0.5 0.7 1.2 0 3.1 5.1 3.4 9.3l0.2 2.8 20.6-0.3 20.5-0.3 8-4.3c4.4-2.3 8.4-4.2 8.9-4.2s0.6 2 0.3 4.5l-0.7 4.5h96.2l-0.6-2.5c-0.3-1.4-0.9-3.7-1.2-5.3-0.5-2.6-0.5-2.6 1-0.8 0.9 1.1 1.9 3.4 2.2 5.3 0.5 2.7 1.1 3.3 3.1 3.3h2.4l-0.3-35.3c-0.2-23-0.7-35.9-1.4-36.8-0.5-0.8-1-3-0.9-4.9s-0.2-4.3-0.7-5.2-1.5-5.4-2.4-10c-1.6-8.4-2.8-13.6-8.2-33.3-2.8-10.2-4.6-19.3-3.7-18.4 0.2 0.2 1.5 2.4 2.9 4.9 2.8 4.9 3.1 4.6 1.5-1.5-0.5-2.2-1.2-5.4-1.5-7-0.3-1.7-1.5-4.5-2.6-6.2-1-1.8-1.7-3.7-1.3-4.3 0.3-0.5 0.1-1-0.4-1-0.6 0-1.1-0.5-1.1-1.2 0-3.4-5.5-18.2-8.5-22.9-1.9-2.9-3.5-5.9-3.5-6.5 0-1.1-1.5-4-8.1-15.4-0.8-1.4-3.9-5.7-7-9.5-3-3.9-7.2-9.7-9.2-13-4.7-7.7-6.1-9.3-12.2-13.6-5.6-3.9-12.3-7.2-23.5-11.4-4.1-1.5-8.4-3.1-9.5-3.6-2.4-1-15.4-1.7-42-2.4-15.3-0.3-21.5-0.1-26.5 1zm28.6 54.2c1.5 4.8 1.9 5.3 4.8 5.4 5 0.2 7-0.2 8.8-1.8 0.9-0.8 2.2-1.2 2.7-0.8 0.6 0.3 1.1 0.1 1.1-0.5s0.4-0.9 0.9-0.6 0.7 1.5 0.4 2.6 0 2 0.6 2 1.1 0.4 1.1 0.9c0 0.4 3.2 4.3 7.2 8.5 3.9 4.2 9.1 10.9 11.6 14.9 4.9 7.7 11.2 20.9 11.2 23.2 0 0.8-1.8 1.9-4.2 2.6-8.8 2.3-15.8 7.9-15.8 12.4v2.1l9.3-2.3c13.9-3.4 14.1-3.4 17.7 3.7 1.6 3.3 3 6.2 3 6.5s-1.7 0.5-3.8 0.5c-8.5 0-19.3 6.6-17.7 10.8 0.3 0.8-0.1 2.2-0.8 3.1-1.5 1.7-1.9 5.4-0.5 4.5 0.4-0.3 1.5 1.4 2.5 3.7 1.5 3.8 1.7 4 2.4 2.1 0.5-1.2 1.4-2.3 2.1-2.3 5.5-0.7 7.9-0.6 8.3 0.2 0.3 0.4 1.4 0 2.4-1 1.2-1.2 3.1-1.8 5-1.7 1.7 0.1 3.1-0.1 3.1-0.6 0-0.4 1.6-0.7 3.7-0.5 3.1 0.2 3.8 0.7 5.1 3.7 0.8 1.9 2.1 8.7 2.8 15 0.8 6.3 1.6 12.5 1.9 13.7 0.4 1.5-0.2 3-1.7 4.5-2.8 2.8-8.8 10.2-17.3 21.3-10.3 13.5-19.5 23.4-24.5 26.3-2.5 1.4-4.8 3.1-5.2 3.7-0.5 0.6-0.8 0.3-0.8-0.8 0-1.4-0.9-1.7-4.9-1.7-3.4 0-5.1 0.4-5.5 1.5-0.6 1.7-3.4 1.9-6.8 0.6-1.3-0.5-5.7-2.2-9.8-3.7-12.9-4.6-33.3-19.3-34-24.5-0.4-2.7 0-4 1-3.4 1.2 0.8 1.2-1.6-0.1-7.5-0.5-2.5-1.1-5.4-1.2-6.5-0.2-1.1-1.1-3.6-2-5.5-2.3-5.1-4.1-29.9-2.3-31.7 0.9-0.9 20.4 2.7 26 4.8 2.8 1 5 1.8 5.1 1.6 0.1-0.1 0.6-1.9 1.2-3.9 1.1-3.6 0.9-3.9-2.9-8.3-4.8-5.4-10.7-7.5-21.4-7.5-4.5 0-7.5-0.5-8.2-1.3-1.5-1.8-1.9-14.3-0.5-14 0.7 0.2 1.4-0.6 1.8-1.6 0.9-2.8 2.2-3 16.5-2.8 7.1 0.1 13-0.1 13-0.5s2.1 0 4.6 0.9c3.9 1.3 4.8 1.3 5.5 0.2 1.2-2 0.7-3.1-2.9-5.5-4.2-2.9-12.9-4.4-24-4.1-10.9 0.2-10.6 0.7-6.3-11.2 4.2-11.4 10.3-21.3 18.6-30 6-6.3 7.2-8 6.4-9.4-1.1-1.8-0.5-17 0.7-18.9 0.9-1.4 2.8 2.1 5 8.9zm129.4 167.4c0 0.5-0.4 0.9-1 0.9-0.5 0-1-0.7-1-1.6 0-0.8 0.5-1.2 1-0.9 0.6 0.3 1 1 1 1.6zm0.9 8.2c0.1 1-0.3 1.5-0.9 1.2-0.5-0.3-1-2.1-0.9-3.8 0-2.7 0.2-2.9 0.9-1.2 0.5 1.1 0.9 2.8 0.9 3.8zm-234.5 2.2c-0.4 0.8-1 1.3-1.4 1-0.5-0.3-1 0.1-1.3 0.7-0.2 0.7-0.8 1-1.2 0.5-0.5-0.4 0-1.4 1.1-2.2 2.5-1.9 3.5-1.9 2.8 0zm235.6 3.5c0 0.5-0.2 1-0.4 1-0.3 0-0.8-0.5-1.1-1-0.3-0.6-0.1-1 0.4-1 0.6 0 1.1 0.4 1.1 1zm0.9 6.9c0.2 2.6-1.3 0.1-1.6-2.7-0.2-2.3-0.1-2.4 0.7-0.7 0.5 1.1 0.9 2.6 0.9 3.4z"/>
  <path d="m189.1 170.6c0 1.1 0.3 1.4 0.6 0.6 0.3-0.7 0.2-1.6-0.1-1.9-0.3-0.4-0.6 0.2-0.5 1.3z"/>
  <path d="m83.1 185.9c-0.1 2.4 0.2 3.2 0.9 2.5s0.7-1.9 0.1-3.5c-0.9-2.3-1-2.2-1 1z"/>
  <path d="m156 196c-3 1.1-6.4 2.5-7.5 3.2-2.7 1.6-17.7 2.3-20.1 0.9-1.6-0.8-1-1.1 3.1-1.1 2.9-0.1 4.3-0.4 3.3-0.8-2.3-0.9-34.1-1.6-36.7-0.7-3.6 1.1-1.4 8.4 2.6 8.5 0.6 0 1.4 0.9 1.8 1.9 0.3 1.1 4.4 5.1 9.1 8.9 6.5 5.2 10 7.4 14.3 8.6 16.2 4.5 27.3-0.4 34.9-15.6 2.3-4.6 4.2-8.9 4.2-9.6 0-0.6 0.4-1.2 0.9-1.2s1.1 0.6 1.4 1.2c0.7 2 1.8 0.4 2-2.8 0.2-2.7-0.1-2.9-3.8-3.1-2.2-0.2-6.5 0.6-9.5 1.7zm-6.3 18.7c-2.2 2.2-19.7 3.1-25.2 1.3-5.8-1.9-2.5-3 9.5-3.1 5.8 0 11.6-0.4 13-0.8 3.4-1.1 4.9 0.4 2.7 2.6z"/>
  <path d="m243 85c0 0.6 1.4 3.9 3.2 7.3s3.1 6.9 3 7.7c-0.2 1.3-0.1 1.3 0.7 0.1 1-1.6 0.5-3.5-3.4-11-2.5-5-3.5-6.2-3.5-4.1z"/>
 </g>
</svg>
